<svg width="270" height="81" viewBox="0 0 270 81" fill="none" xmlns="http://www.w3.org/2000/svg">
<g clip-path="url(#clip0)">
<rect width="270" height="81" fill="white"/>
<rect x="40" y="29" width="42" height="22" rx="2" fill="#57AEFF"/>
<rect x="86" y="29" width="43" height="22" rx="2" fill="#57AEFF"/>
<rect x="133" y="29" width="44" height="22" rx="2" fill="#57AEFF"/>
<rect x="181" y="29" width="43" height="22" rx="2" fill="#57AEFF"/>
<rect x="228" y="29" width="42" height="22" rx="2" fill="#57AEFF"/>
<rect x="40" y="54" width="42" height="22" rx="2" fill="#57AEFF"/>
<rect x="86" y="54" width="43" height="22" rx="2" fill="#57AEFF"/>
<rect x="133" y="54" width="44" height="22" rx="2" fill="#57AEFF"/>
<rect x="181" y="54" width="43" height="22" rx="2" fill="#57AEFF"/>
<rect x="228" y="54" width="42" height="22" rx="2" fill="#57AEFF"/>
<path d="M66.3203 15V3.72656H63.9609L60.5703 12.0938H60.4297L57.0391 3.72656H54.6797V15H56.5547V7.00781H56.6641L59.7812 14.6484H61.2188L64.3359 7.00781H64.4453V15H66.3203Z" fill="black"/>
<path d="M9.12562 45H11.2897L7.28187 33.7266H5.01625L1.01625 45H3.05531L4.02406 42.0859H8.1725L9.12562 45ZM6.03969 35.8438H6.1725L7.70375 40.5312H4.49281L6.03969 35.8438ZM24.1478 45V33.7266H21.7884L18.3978 42.0938H18.2572L14.8666 33.7266H12.5072V45H14.3822V37.0078H14.4916L17.6087 44.6484H19.0462L22.1634 37.0078H22.2728V45H24.1478Z" fill="#BFBFBF"/>
<path d="M2.75844 59.7266V71H4.77406V67.2734H7.21937C9.50062 67.2734 11.0944 65.75 11.0944 63.5234C11.0944 61.2578 9.55531 59.7266 7.30531 59.7266H2.75844ZM4.77406 61.375H6.77406C8.22719 61.375 9.0475 62.125 9.0475 63.5234C9.0475 64.8828 8.20375 65.6484 6.76625 65.6484H4.77406V61.375ZM24.2416 71V59.7266H21.8822L18.4916 68.0938H18.3509L14.9603 59.7266H12.6009V71H14.4759V63.0078H14.5853L17.7025 70.6484H19.14L22.2572 63.0078H22.3666V71H24.2416Z" fill="#BFBFBF"/>
<path d="M108.508 15V5.42188H111.984V3.72656H103.023V5.42188H106.492V15H108.508Z" fill="black"/>
<path d="M154.938 6.92969H155.055L157.352 15H159.242L162.266 3.72656H160.18L158.25 12.1875H158.141L155.891 3.72656H154.102L151.883 12.1875H151.766L149.836 3.72656H147.734L150.758 15H152.656L154.938 6.92969Z" fill="black"/>
<path d="M198.391 15V5.42188H201.868V3.72656H192.907V5.42188H196.376V15H198.391ZM203.132 15H205.07V10.0391C205.07 8.78906 205.781 7.95312 207.054 7.95312C208.179 7.95312 208.773 8.625 208.773 9.94531V15H210.71V9.49219C210.71 7.46094 209.601 6.30469 207.773 6.30469C206.499 6.30469 205.585 6.88281 205.179 7.84375H205.038V3.15625H203.132V15Z" fill="black"/>
<path d="M247.695 15V10.3984H252.422V8.75781H247.695V5.42188H252.867V3.72656H245.68V15H247.695Z" fill="black"/>
</g>
<defs>
<clipPath id="clip0">
<rect width="270" height="81" fill="white"/>
</clipPath>
</defs>
</svg>
