<svg width="270" height="95" viewBox="0 0 270 95" fill="none" xmlns="http://www.w3.org/2000/svg">
<rect width="270" height="95" fill="white"/>
<rect x="41" y="30" width="19" height="60" rx="2" fill="#DEDEDE"/>
<rect x="64" y="30" width="19" height="60" rx="2" fill="#DEDEDE"/>
<rect x="87" y="30" width="19" height="60" rx="2" fill="#DEDEDE"/>
<rect x="110" y="30" width="19" height="60" rx="2" fill="#DEDEDE"/>
<rect x="133" y="30" width="19" height="60" rx="2" fill="#DEDEDE"/>
<rect x="156" y="30" width="19" height="60" rx="2" fill="#DEDEDE"/>
<rect x="179" y="30" width="19" height="60" rx="2" fill="#57AEFF"/>
<rect x="202" y="30" width="19" height="60" rx="2" fill="#DEDEDE"/>
<rect x="225" y="30" width="19" height="60" rx="2" fill="#DEDEDE"/>
<rect x="248" y="30" width="19" height="60" rx="2" fill="#DEDEDE"/>
<path d="M44.3828 18.2812C46.9844 18.2812 48.7656 16.9375 48.7656 14.9766C48.7656 13.5234 47.7969 12.3828 46.3281 12.1094V11.9766C47.5391 11.6719 48.3047 10.7109 48.3047 9.49219C48.3047 7.71875 46.6797 6.44531 44.3906 6.44531C42.1016 6.44531 40.4688 7.71875 40.4688 9.49219C40.4688 10.7031 41.25 11.6797 42.4531 11.9766V12.1094C40.9766 12.4141 40.0156 13.5547 40.0156 14.9844C40.0156 16.9375 41.7969 18.2812 44.3828 18.2812ZM44.3906 11.3828C43.2422 11.3828 42.4531 10.6953 42.4531 9.67969C42.4531 8.66406 43.2344 7.96094 44.3906 7.96094C45.5391 7.96094 46.3203 8.66406 46.3203 9.67969C46.3203 10.6875 45.5312 11.3828 44.3906 11.3828ZM44.3906 16.7422C43.0312 16.7422 42.0938 15.9531 42.0938 14.8203C42.0938 13.6797 43.0312 12.8906 44.3906 12.8906C45.7422 12.8906 46.6797 13.6797 46.6797 14.8203C46.6797 15.9531 45.75 16.7422 44.3906 16.7422ZM57.5222 18H59.6862L55.6784 6.72656H53.4128L49.4128 18H51.4519L52.4206 15.0859H56.5691L57.5222 18ZM54.4362 8.84375H54.5691L56.1003 13.5312H52.8894L54.4362 8.84375ZM72.5444 18V6.72656H70.185L66.7944 15.0938H66.6537L63.2631 6.72656H60.9037V18H62.7787V10.0078H62.8881L66.0053 17.6484H67.4428L70.56 10.0078H70.6694V18H72.5444Z" fill="#BFBFBF"/>
<path d="M233.058 18H235.074V6.72656H233.066L230.121 8.79688V10.6953L232.926 8.71094H233.058V18ZM237.448 10.0625H239.338C239.338 8.875 240.12 8.0625 241.346 8.0625C242.526 8.0625 243.229 8.85156 243.229 9.875C243.229 10.7344 242.885 11.2734 241.463 12.7109L237.557 16.6406V18H245.385V16.3281H240.292V16.1953L242.713 13.8125C244.651 11.9141 245.221 11 245.221 9.6875C245.221 7.8125 243.698 6.44531 241.456 6.44531C239.104 6.44531 237.448 7.92969 237.448 10.0625ZM247.126 6.72656V18H249.142V14.2734H251.587C253.868 14.2734 255.462 12.75 255.462 10.5234C255.462 8.25781 253.923 6.72656 251.673 6.72656H247.126ZM249.142 8.375H251.142C252.595 8.375 253.415 9.125 253.415 10.5234C253.415 11.8828 252.572 12.6484 251.134 12.6484H249.142V8.375ZM268.609 18V6.72656H266.25L262.859 15.0938H262.719L259.328 6.72656H256.969V18H258.844V10.0078H258.953L262.07 17.6484H263.508L266.625 10.0078H266.734V18H268.609Z" fill="#BFBFBF"/>
<path d="M19.3203 65V53.7266H16.9609L13.5703 62.0938H13.4297L10.0391 53.7266H7.67969V65H9.55469V57.0078H9.66406L12.7812 64.6484H14.2188L17.3359 57.0078H17.4453V65H19.3203Z" fill="black"/>
</svg>
