<svg width="270" height="95" viewBox="0 0 270 95" fill="none" xmlns="http://www.w3.org/2000/svg">
<rect width="270" height="95" fill="white"/>
<rect x="41" y="30" width="19" height="60" rx="2" fill="#57AEFF"/>
<rect x="64" y="30" width="19" height="60" rx="2" fill="#57AEFF"/>
<rect x="87" y="30" width="19" height="60" rx="2" fill="#57AEFF"/>
<rect x="110" y="30" width="19" height="60" rx="2" fill="#57AEFF"/>
<rect x="133" y="30" width="19" height="60" rx="2" fill="#57AEFF"/>
<rect x="156" y="30" width="19" height="60" rx="2" fill="#57AEFF"/>
<rect x="179" y="30" width="19" height="60" rx="2" fill="#57AEFF"/>
<rect x="202" y="30" width="19" height="60" rx="2" fill="#57AEFF"/>
<rect x="225" y="30" width="19" height="60" rx="2" fill="#57AEFF"/>
<rect x="248" y="30" width="19" height="60" rx="2" fill="#57AEFF"/>
<path d="M45.4153 18.2812C48.0169 18.2812 49.7981 16.9375 49.7981 14.9766C49.7981 13.5234 48.8294 12.3828 47.3606 12.1094V11.9766C48.5716 11.6719 49.3372 10.7109 49.3372 9.49219C49.3372 7.71875 47.7122 6.44531 45.4231 6.44531C43.1341 6.44531 41.5012 7.71875 41.5012 9.49219C41.5012 10.7031 42.2825 11.6797 43.4856 11.9766V12.1094C42.0091 12.4141 41.0481 13.5547 41.0481 14.9844C41.0481 16.9375 42.8294 18.2812 45.4153 18.2812ZM45.4231 11.3828C44.2747 11.3828 43.4856 10.6953 43.4856 9.67969C43.4856 8.66406 44.2669 7.96094 45.4231 7.96094C46.5716 7.96094 47.3528 8.66406 47.3528 9.67969C47.3528 10.6875 46.5637 11.3828 45.4231 11.3828ZM45.4231 16.7422C44.0637 16.7422 43.1262 15.9531 43.1262 14.8203C43.1262 13.6797 44.0637 12.8906 45.4231 12.8906C46.7747 12.8906 47.7122 13.6797 47.7122 14.8203C47.7122 15.9531 46.7825 16.7422 45.4231 16.7422ZM58.5547 18H60.7187L56.7109 6.72656H54.4453L50.4453 18H52.4844L53.4531 15.0859H57.6016L58.5547 18ZM55.4687 8.84375H55.6016L57.1328 13.5312H53.9219L55.4687 8.84375ZM73.5769 18V6.72656H71.2175L67.8269 15.0938H67.6862L64.2956 6.72656H61.9362V18H63.8112V10.0078H63.9206L67.0378 17.6484H68.4753L71.5925 10.0078H71.7019V18H73.5769Z" fill="#BFBFBF"/>
<path d="M233.058 18H235.074V6.72656H233.066L230.121 8.79688V10.6953L232.926 8.71094H233.058V18ZM237.448 10.0625H239.338C239.338 8.875 240.12 8.0625 241.346 8.0625C242.526 8.0625 243.229 8.85156 243.229 9.875C243.229 10.7344 242.885 11.2734 241.463 12.7109L237.557 16.6406V18H245.385V16.3281H240.292V16.1953L242.713 13.8125C244.651 11.9141 245.221 11 245.221 9.6875C245.221 7.8125 243.698 6.44531 241.456 6.44531C239.104 6.44531 237.448 7.92969 237.448 10.0625ZM247.126 6.72656V18H249.142V14.2734H251.587C253.868 14.2734 255.462 12.75 255.462 10.5234C255.462 8.25781 253.923 6.72656 251.673 6.72656H247.126ZM249.142 8.375H251.142C252.595 8.375 253.415 9.125 253.415 10.5234C253.415 11.8828 252.572 12.6484 251.134 12.6484H249.142V8.375ZM268.609 18V6.72656H266.25L262.859 15.0938H262.719L259.328 6.72656H256.969V18H258.844V10.0078H258.953L262.07 17.6484H263.508L266.625 10.0078H266.734V18H268.609Z" fill="#BFBFBF"/>
<path d="M19.3203 65V53.7266H16.9609L13.5703 62.0938H13.4297L10.0391 53.7266H7.67969V65H9.55469V57.0078H9.66406L12.7812 64.6484H14.2188L17.3359 57.0078H17.4453V65H19.3203Z" fill="black"/>
</svg>
