<svg width="26" height="24" viewBox="0 0 26 24" fill="none" xmlns="http://www.w3.org/2000/svg">
<path d="M16.5737 7.14915C16.292 6.92112 15.9433 6.67969 15.5945 6.57239L15.0446 17.7722L17.8345 10.0329C18.0893 8.85259 17.4321 7.87345 16.5737 7.14915Z" fill="white"/>
<path d="M11.973 6.47845L13.6094 17.6649L15.2055 6.49187C14.28 6.1163 13.046 6.06265 11.973 6.47845Z" fill="white"/>
<path d="M10.6183 7.13572C9.75985 7.87343 9.10262 8.83916 9.35746 10.0195L12.1474 17.7588L11.5974 6.55896C11.2487 6.66626 10.9 6.9077 10.6183 7.13572Z" fill="white"/>
<path d="M5.01166 8.19532C6.86265 11.4547 8.76729 14.9555 10.6183 18.0807C9.96104 15.3444 9.29039 10.7974 8.33807 9.5232C7.25162 7.99412 5.01166 8.19532 5.01166 8.19532Z" fill="white"/>
<path d="M1.71207 9.83175L9.31722 18.6575L4.60927 8.24902C3.37528 8.28926 2.34248 8.91967 1.71207 9.83175Z" fill="white"/>
<path d="M17.6333 12.2192L16.3724 18.2685C17.9954 15.4383 19.605 12.6619 21.1743 9.83173C19.672 9.95244 18.1295 10.5292 17.6333 12.2192Z" fill="white"/>
<path d="M21.6303 9.83173L17.6198 18.7916L24.675 11.0791C23.8568 10.2475 22.8106 9.85855 21.6303 9.83173Z" fill="white"/>
<path d="M0.732926 13.8288C3.21433 15.7468 5.6689 17.7051 8.16371 19.6098L1.47064 10.1402C0.853643 11.2132 0.665861 12.4606 0.732926 13.8288Z" fill="white"/>
<path d="M25.5335 12.1924C25.3859 11.8973 25.2116 11.6156 24.9433 11.3742L18.8806 19.7037C21.295 17.9063 23.6288 16.0687 25.9493 14.2312C25.9627 13.5069 25.842 12.796 25.5335 12.1924Z" fill="white"/>
<path d="M0.746338 17.6783L7.2248 20.6693C5.07873 18.5233 2.90583 16.4443 0.746338 14.325V17.6783Z" fill="white"/>
<path d="M25.9359 17.9063V14.8481L19.8196 20.7901C21.8986 19.8378 23.8167 18.8989 25.9359 17.9063Z" fill="white"/>
<path d="M0.73291 20.656C2.67779 21.0852 4.81045 21.6351 6.56755 22.0107L0.73291 18.1478V20.656V20.656Z" fill="white"/>
<path d="M25.9359 20.8304V18.4831C24.0983 19.65 22.2071 20.8572 20.5036 22.0778L25.9359 20.8304Z" fill="white"/>
<path d="M0.73291 23.58H6.43342L0.73291 21.1389V23.58Z" fill="white"/>
<path d="M25.9359 23.5799V21.3534C24.0581 22.1582 22.4351 22.8288 20.6646 23.5799H25.9359Z" fill="white"/>
<path d="M23.9642 6.86738C24.0312 3.44707 19.0014 3.42025 19.0953 6.84055C19.055 9.9926 24.0849 10.167 23.9642 6.86738Z" fill="white"/>
<path d="M7.68082 5.0969C7.84178 1.66318 2.53024 1.79731 2.73144 5.0969C2.54365 8.50379 8.00273 8.55744 7.68082 5.0969Z" fill="white"/>
<path d="M13.6094 5.75416C15.5811 5.80782 16.3725 4.35921 16.4261 2.99109C16.5066 0.885256 15.1921 0 13.6228 0C12.0535 0 10.7658 0.938908 10.8463 3.00451C10.9 4.14461 11.3828 5.6871 13.6094 5.75416Z" fill="white"/>
</svg>
