<svg width="31" height="13" viewBox="0 0 31 13" fill="none" xmlns="http://www.w3.org/2000/svg">
<g clip-path="url(#clip0)">
<path d="M24.154 0C22.5535 0 20.9899 0.537931 19.739 1.51517L9.95226 9.9069C9.09684 10.5793 8.00228 10.9469 6.88012 10.9469C4.24029 10.9469 2.09715 8.94759 2.09715 6.49103C2.09715 4.03448 4.24029 2.03517 6.88012 2.03517C7.99308 2.03517 9.07845 2.39379 9.90627 3.03931L12.5885 5.17086C12.8 5.35017 13.076 5.43086 13.3519 5.41293C13.6278 5.395 13.8854 5.26948 14.0693 5.05431C14.4465 4.62396 14.3913 3.97845 13.9498 3.61086L11.24 1.45241C10.0166 0.52 8.47138 0 6.88012 0C3.09054 0 0 2.91379 0 6.49103C0 10.0683 3.09054 12.9821 6.88012 12.9821C8.48058 12.9821 10.0442 12.4441 11.2952 11.4669L21.0819 3.07517C21.9373 2.40276 23.0318 2.03517 24.154 2.03517C26.7938 2.03517 28.937 4.03448 28.937 6.49103C28.937 8.94759 26.7938 10.9469 24.154 10.9469C23.041 10.9469 21.9557 10.5883 21.1279 9.94276L18.3289 7.8C17.8874 7.43241 17.2251 7.48621 16.848 7.91655C16.664 8.12276 16.5813 8.39172 16.5997 8.66069C16.618 8.92965 16.7468 9.18069 16.9584 9.36L19.7849 11.5297C21.0083 12.48 22.5627 13 24.1448 13C27.9344 13 31.0249 10.0862 31.0249 6.50897C31.0341 2.91379 27.9528 0 24.154 0Z" fill="black"/>
</g>
<defs>
<clipPath id="clip0">
<rect width="31" height="13" fill="white"/>
</clipPath>
</defs>
</svg>
