<svg width="278" height="169" viewBox="0 0 278 169" fill="none" xmlns="http://www.w3.org/2000/svg">
<rect width="278" height="169" fill="white"/>
<path d="M29.4063 126V114.727H27.3907V126H29.4063ZM31.2644 126H33.2019V121.023C33.2019 119.742 33.9285 118.938 35.0847 118.938C36.2644 118.938 36.8113 119.602 36.8113 120.93V126H38.7488V120.477C38.7488 118.445 37.7097 117.297 35.8035 117.297C34.5301 117.297 33.6707 117.875 33.2644 118.828H33.1316V117.461H31.2644V126ZM47.7085 120.312C47.5054 118.547 46.1772 117.297 43.9819 117.297C41.4116 117.297 39.9038 118.945 39.9038 121.711C39.9038 124.508 41.4194 126.172 43.9897 126.172C46.1538 126.172 47.4976 124.969 47.7085 123.203H45.8647C45.6616 124.102 44.9897 124.578 43.9819 124.578C42.6616 124.578 41.8647 123.523 41.8647 121.711C41.8647 119.93 42.6538 118.883 43.9819 118.883C45.0444 118.883 45.6851 119.484 45.8647 120.312H47.7085ZM48.8401 126H50.7776V121.039C50.7776 119.836 51.6526 119.055 52.9104 119.055C53.2385 119.055 53.7541 119.109 53.9026 119.164V117.398C53.7229 117.352 53.3791 117.32 53.0979 117.32C51.9963 117.32 51.0744 117.945 50.8401 118.789H50.7072V117.461H48.8401V126ZM60.1279 123.664C59.8466 124.305 59.1826 124.664 58.2216 124.664C56.9482 124.664 56.1279 123.758 56.081 122.312V122.211H62.0497V121.594C62.0497 118.914 60.5888 117.297 58.1513 117.297C55.6747 117.297 54.1357 119.023 54.1357 121.766C54.1357 124.5 55.6513 126.172 58.1669 126.172C60.1826 126.172 61.6122 125.203 61.9638 123.664H60.1279ZM58.1435 118.805C59.3076 118.805 60.0732 119.625 60.1122 120.922H56.0888C56.1747 119.641 56.9872 118.805 58.1435 118.805ZM65.6266 126.141C66.7438 126.141 67.6813 125.656 68.1579 124.828H68.2907V126H70.1579V120.164C70.1579 118.359 68.9235 117.297 66.7282 117.297C64.6969 117.297 63.2829 118.25 63.1266 119.742H64.9548C65.1344 119.156 65.7438 118.836 66.6344 118.836C67.6813 118.836 68.2438 119.312 68.2438 120.164V120.898L66.0407 121.031C63.9626 121.148 62.7985 122.047 62.7985 123.578C62.7985 125.141 63.9782 126.141 65.6266 126.141ZM66.1969 124.648C65.3376 124.648 64.7204 124.219 64.7204 123.484C64.7204 122.773 65.2282 122.375 66.3141 122.305L68.2438 122.172V122.867C68.2438 123.883 67.3688 124.648 66.1969 124.648ZM71.5785 119.898C71.5785 121.18 72.3519 121.93 73.9926 122.305L75.5082 122.656C76.3207 122.844 76.6879 123.156 76.6879 123.641C76.6879 124.289 76.0082 124.734 75.0316 124.734C74.0629 124.734 73.4613 124.344 73.2738 123.711H71.3597C71.5082 125.25 72.8519 126.172 74.9847 126.172C77.1176 126.172 78.6254 125.086 78.6254 123.453C78.6254 122.195 77.8676 121.5 76.2347 121.125L74.7269 120.789C73.8676 120.586 73.4613 120.281 73.4613 119.797C73.4613 119.164 74.1254 118.734 75.0082 118.734C75.9144 118.734 76.4847 119.125 76.6254 119.727H78.4457C78.3051 118.188 77.0316 117.297 75.0004 117.297C72.9847 117.297 71.5785 118.367 71.5785 119.898ZM85.4366 123.664C85.1554 124.305 84.4913 124.664 83.5304 124.664C82.2569 124.664 81.4366 123.758 81.3897 122.312V122.211H87.3585V121.594C87.3585 118.914 85.8976 117.297 83.4601 117.297C80.9835 117.297 79.4444 119.023 79.4444 121.766C79.4444 124.5 80.9601 126.172 83.4757 126.172C85.4913 126.172 86.921 125.203 87.2726 123.664H85.4366ZM83.4522 118.805C84.6163 118.805 85.3819 119.625 85.421 120.922H81.3976C81.4835 119.641 82.296 118.805 83.4522 118.805ZM97.1529 126V116.422H100.629V114.727H91.6685V116.422H95.1372V126H97.1529ZM101.894 126H103.831V121.039C103.831 119.789 104.542 118.953 105.816 118.953C106.941 118.953 107.534 119.625 107.534 120.945V126H109.472V120.492C109.472 118.461 108.363 117.305 106.534 117.305C105.261 117.305 104.347 117.883 103.941 118.844H103.8V114.156H101.894V126ZM111.049 126H112.986V121.039C112.986 119.836 113.861 119.055 115.119 119.055C115.447 119.055 115.963 119.109 116.111 119.164V117.398C115.932 117.352 115.588 117.32 115.307 117.32C114.205 117.32 113.283 117.945 113.049 118.789H112.916V117.461H111.049V126ZM120.454 126.172C123.008 126.172 124.563 124.5 124.563 121.727C124.563 118.969 123.001 117.297 120.454 117.297C117.915 117.297 116.344 118.977 116.344 121.727C116.344 124.5 117.891 126.172 120.454 126.172ZM120.454 124.586C119.102 124.586 118.329 123.539 118.329 121.734C118.329 119.93 119.102 118.883 120.454 118.883C121.798 118.883 122.571 119.93 122.571 121.734C122.571 123.539 121.805 124.586 120.454 124.586ZM133.234 117.461H131.296V122.438C131.296 123.727 130.609 124.508 129.351 124.508C128.195 124.508 127.656 123.867 127.656 122.539V117.461H125.718V123.008C125.718 125.008 126.812 126.172 128.679 126.172C129.984 126.172 130.82 125.617 131.234 124.641H131.367V126H133.234V117.461ZM138.561 129.25C141.053 129.25 142.631 128.008 142.631 126.047V117.461H140.764V118.828H140.631C140.162 117.898 139.147 117.32 137.983 117.32C135.803 117.32 134.451 119.023 134.451 121.641C134.451 124.203 135.795 125.875 137.951 125.875C139.139 125.875 140.068 125.375 140.561 124.453H140.693V126.078C140.693 127.164 139.92 127.805 138.592 127.805C137.529 127.805 136.842 127.422 136.717 126.82H134.772C134.928 128.289 136.365 129.25 138.561 129.25ZM138.561 124.336C137.209 124.336 136.443 123.289 136.443 121.633C136.443 119.984 137.209 118.938 138.561 118.938C139.904 118.938 140.725 119.984 140.725 121.641C140.725 123.289 139.912 124.336 138.561 124.336ZM144.372 126H146.309V121.039C146.309 119.789 147.02 118.953 148.294 118.953C149.419 118.953 150.013 119.625 150.013 120.945V126H151.95V120.492C151.95 118.461 150.841 117.305 149.013 117.305C147.739 117.305 146.825 117.883 146.419 118.844H146.278V114.156H144.372V126ZM158.183 117.32C157.011 117.32 156.019 117.906 155.527 118.875H155.394V117.461H153.527V128.836H155.464V124.703H155.597C156.035 125.609 156.98 126.141 158.207 126.141C160.363 126.141 161.707 124.445 161.707 121.734C161.707 119 160.347 117.32 158.183 117.32ZM157.574 124.531C156.253 124.531 155.433 123.461 155.425 121.734C155.433 120.008 156.261 118.938 157.582 118.938C158.91 118.938 159.714 119.984 159.714 121.734C159.714 123.484 158.918 124.531 157.574 124.531ZM170.369 117.461H168.432V122.438C168.432 123.727 167.744 124.508 166.487 124.508C165.33 124.508 164.791 123.867 164.791 122.539V117.461H162.854V123.008C162.854 125.008 163.948 126.172 165.815 126.172C167.119 126.172 167.955 125.617 168.369 124.641H168.502V126H170.369V117.461ZM172.642 115.367V117.516H171.29V119.023H172.642V123.734C172.642 125.383 173.423 126.039 175.384 126.039C175.759 126.039 176.118 126.008 176.399 125.953V124.469C176.165 124.492 176.017 124.508 175.743 124.508C174.931 124.508 174.571 124.125 174.571 123.273V119.023H176.399V117.516H174.571V115.367H172.642ZM181.764 128.414L185.811 114.156H184.069L180.014 128.414H181.764ZM197.355 126H199.519L195.512 114.727H193.246L189.246 126H191.285L192.254 123.086H196.402L197.355 126ZM194.269 116.844H194.402L195.934 121.531H192.723L194.269 116.844ZM207.448 120.312C207.245 118.547 205.917 117.297 203.721 117.297C201.151 117.297 199.643 118.945 199.643 121.711C199.643 124.508 201.159 126.172 203.729 126.172C205.893 126.172 207.237 124.969 207.448 123.203H205.604C205.401 124.102 204.729 124.578 203.721 124.578C202.401 124.578 201.604 123.523 201.604 121.711C201.604 119.93 202.393 118.883 203.721 118.883C204.784 118.883 205.424 119.484 205.604 120.312H207.448ZM215.962 120.312C215.759 118.547 214.431 117.297 212.236 117.297C209.665 117.297 208.158 118.945 208.158 121.711C208.158 124.508 209.673 126.172 212.243 126.172C214.408 126.172 215.751 124.969 215.962 123.203H214.118C213.915 124.102 213.243 124.578 212.236 124.578C210.915 124.578 210.118 123.523 210.118 121.711C210.118 119.93 210.908 118.883 212.236 118.883C213.298 118.883 213.939 119.484 214.118 120.312H215.962ZM222.664 123.664C222.383 124.305 221.719 124.664 220.758 124.664C219.484 124.664 218.664 123.758 218.617 122.312V122.211H224.586V121.594C224.586 118.914 223.125 117.297 220.688 117.297C218.211 117.297 216.672 119.023 216.672 121.766C216.672 124.5 218.188 126.172 220.703 126.172C222.719 126.172 224.148 125.203 224.5 123.664H222.664ZM220.68 118.805C221.844 118.805 222.609 119.625 222.648 120.922H218.625C218.711 119.641 219.523 118.805 220.68 118.805ZM225.616 119.898C225.616 121.18 226.389 121.93 228.03 122.305L229.546 122.656C230.358 122.844 230.725 123.156 230.725 123.641C230.725 124.289 230.046 124.734 229.069 124.734C228.1 124.734 227.499 124.344 227.311 123.711H225.397C225.546 125.25 226.889 126.172 229.022 126.172C231.155 126.172 232.663 125.086 232.663 123.453C232.663 122.195 231.905 121.5 230.272 121.125L228.764 120.789C227.905 120.586 227.499 120.281 227.499 119.797C227.499 119.164 228.163 118.734 229.046 118.734C229.952 118.734 230.522 119.125 230.663 119.727H232.483C232.343 118.188 231.069 117.297 229.038 117.297C227.022 117.297 225.616 118.367 225.616 119.898ZM233.552 119.898C233.552 121.18 234.326 121.93 235.966 122.305L237.482 122.656C238.294 122.844 238.662 123.156 238.662 123.641C238.662 124.289 237.982 124.734 237.005 124.734C236.037 124.734 235.435 124.344 235.248 123.711H233.333C233.482 125.25 234.826 126.172 236.958 126.172C239.091 126.172 240.599 125.086 240.599 123.453C240.599 122.195 239.841 121.5 238.208 121.125L236.701 120.789C235.841 120.586 235.435 120.281 235.435 119.797C235.435 119.164 236.099 118.734 236.982 118.734C237.888 118.734 238.458 119.125 238.599 119.727H240.419C240.279 118.188 239.005 117.297 236.974 117.297C234.958 117.297 233.552 118.367 233.552 119.898Z" fill="black"/>
<path d="M8.50007 127L8.50006 116.5" stroke="#FF2C2C" stroke-width="3" stroke-linecap="round"/>
<path d="M3.00006 119.593L8.59276 114L14.1855 119.593" stroke="#FF2C2C" stroke-width="3" stroke-linecap="round" stroke-linejoin="round"/>
<path d="M8.50007 163L8.50006 152.5" stroke="#FF2C2C" stroke-width="3" stroke-linecap="round"/>
<path d="M3.00006 155.593L8.59276 150L14.1855 155.593" stroke="#FF2C2C" stroke-width="3" stroke-linecap="round" stroke-linejoin="round"/>
<path d="M8.68542 6L8.68542 16.5" stroke="#FF2C2C" stroke-width="3" stroke-linecap="round"/>
<path d="M14.1854 13.4073L8.59272 19L3.00002 13.4073" stroke="#FF2C2C" stroke-width="3" stroke-linecap="round" stroke-linejoin="round"/>
<path d="M8.68542 42L8.68542 52.5" stroke="#FF2C2C" stroke-width="3" stroke-linecap="round"/>
<path d="M14.1854 49.4073L8.59272 55L3.00002 49.4073" stroke="#FF2C2C" stroke-width="3" stroke-linecap="round" stroke-linejoin="round"/>
<path d="M29.4063 162V150.727H27.3907V162H29.4063ZM31.2644 162H33.2019V157.023C33.2019 155.742 33.9285 154.938 35.0847 154.938C36.2644 154.938 36.8113 155.602 36.8113 156.93V162H38.7488V156.477C38.7488 154.445 37.7097 153.297 35.8035 153.297C34.5301 153.297 33.6707 153.875 33.2644 154.828H33.1316V153.461H31.2644V162ZM47.7085 156.312C47.5054 154.547 46.1772 153.297 43.9819 153.297C41.4116 153.297 39.9038 154.945 39.9038 157.711C39.9038 160.508 41.4194 162.172 43.9897 162.172C46.1538 162.172 47.4976 160.969 47.7085 159.203H45.8647C45.6616 160.102 44.9897 160.578 43.9819 160.578C42.6616 160.578 41.8647 159.523 41.8647 157.711C41.8647 155.93 42.6538 154.883 43.9819 154.883C45.0444 154.883 45.6851 155.484 45.8647 156.312H47.7085ZM48.8401 162H50.7776V157.039C50.7776 155.836 51.6526 155.055 52.9104 155.055C53.2385 155.055 53.7541 155.109 53.9026 155.164V153.398C53.7229 153.352 53.3791 153.32 53.0979 153.32C51.9963 153.32 51.0744 153.945 50.8401 154.789H50.7072V153.461H48.8401V162ZM60.1279 159.664C59.8466 160.305 59.1826 160.664 58.2216 160.664C56.9482 160.664 56.1279 159.758 56.081 158.312V158.211H62.0497V157.594C62.0497 154.914 60.5888 153.297 58.1513 153.297C55.6747 153.297 54.1357 155.023 54.1357 157.766C54.1357 160.5 55.6513 162.172 58.1669 162.172C60.1826 162.172 61.6122 161.203 61.9638 159.664H60.1279ZM58.1435 154.805C59.3076 154.805 60.0732 155.625 60.1122 156.922H56.0888C56.1747 155.641 56.9872 154.805 58.1435 154.805ZM65.6266 162.141C66.7438 162.141 67.6813 161.656 68.1579 160.828H68.2907V162H70.1579V156.164C70.1579 154.359 68.9235 153.297 66.7282 153.297C64.6969 153.297 63.2829 154.25 63.1266 155.742H64.9548C65.1344 155.156 65.7438 154.836 66.6344 154.836C67.6813 154.836 68.2438 155.312 68.2438 156.164V156.898L66.0407 157.031C63.9626 157.148 62.7985 158.047 62.7985 159.578C62.7985 161.141 63.9782 162.141 65.6266 162.141ZM66.1969 160.648C65.3376 160.648 64.7204 160.219 64.7204 159.484C64.7204 158.773 65.2282 158.375 66.3141 158.305L68.2438 158.172V158.867C68.2438 159.883 67.3688 160.648 66.1969 160.648ZM71.5785 155.898C71.5785 157.18 72.3519 157.93 73.9926 158.305L75.5082 158.656C76.3207 158.844 76.6879 159.156 76.6879 159.641C76.6879 160.289 76.0082 160.734 75.0316 160.734C74.0629 160.734 73.4613 160.344 73.2738 159.711H71.3597C71.5082 161.25 72.8519 162.172 74.9847 162.172C77.1176 162.172 78.6254 161.086 78.6254 159.453C78.6254 158.195 77.8676 157.5 76.2347 157.125L74.7269 156.789C73.8676 156.586 73.4613 156.281 73.4613 155.797C73.4613 155.164 74.1254 154.734 75.0082 154.734C75.9144 154.734 76.4847 155.125 76.6254 155.727H78.4457C78.3051 154.188 77.0316 153.297 75.0004 153.297C72.9847 153.297 71.5785 154.367 71.5785 155.898ZM85.4366 159.664C85.1554 160.305 84.4913 160.664 83.5304 160.664C82.2569 160.664 81.4366 159.758 81.3897 158.312V158.211H87.3585V157.594C87.3585 154.914 85.8976 153.297 83.4601 153.297C80.9835 153.297 79.4444 155.023 79.4444 157.766C79.4444 160.5 80.9601 162.172 83.4757 162.172C85.4913 162.172 86.921 161.203 87.2726 159.664H85.4366ZM83.4522 154.805C84.6163 154.805 85.3819 155.625 85.421 156.922H81.3976C81.4835 155.641 82.296 154.805 83.4522 154.805ZM92.3326 150.727V162H94.3482V158.273H96.7935C99.0747 158.273 100.668 156.75 100.668 154.523C100.668 152.258 99.1294 150.727 96.8794 150.727H92.3326ZM94.3482 152.375H96.3482C97.8013 152.375 98.6216 153.125 98.6216 154.523C98.6216 155.883 97.7779 156.648 96.3404 156.648H94.3482V152.375ZM104.011 162.141C105.128 162.141 106.066 161.656 106.542 160.828H106.675V162H108.542V156.164C108.542 154.359 107.308 153.297 105.113 153.297C103.081 153.297 101.667 154.25 101.511 155.742H103.339C103.519 155.156 104.128 154.836 105.019 154.836C106.066 154.836 106.628 155.312 106.628 156.164V156.898L104.425 157.031C102.347 157.148 101.183 158.047 101.183 159.578C101.183 161.141 102.363 162.141 104.011 162.141ZM104.581 160.648C103.722 160.648 103.105 160.219 103.105 159.484C103.105 158.773 103.613 158.375 104.699 158.305L106.628 158.172V158.867C106.628 159.883 105.753 160.648 104.581 160.648ZM110.775 151.367V153.516H109.424V155.023H110.775V159.734C110.775 161.383 111.557 162.039 113.518 162.039C113.893 162.039 114.252 162.008 114.533 161.953V160.469C114.299 160.492 114.15 160.508 113.877 160.508C113.064 160.508 112.705 160.125 112.705 159.273V155.023H114.533V153.516H112.705V151.367H110.775ZM116.735 152.031C117.376 152.031 117.899 151.523 117.899 150.883C117.899 150.25 117.376 149.734 116.735 149.734C116.102 149.734 115.579 150.25 115.579 150.883C115.579 151.523 116.102 152.031 116.735 152.031ZM115.774 162H117.704V153.461H115.774V162ZM124.96 159.664C124.679 160.305 124.015 160.664 123.054 160.664C121.781 160.664 120.96 159.758 120.913 158.312V158.211H126.882V157.594C126.882 154.914 125.421 153.297 122.984 153.297C120.507 153.297 118.968 155.023 118.968 157.766C118.968 160.5 120.484 162.172 122.999 162.172C125.015 162.172 126.445 161.203 126.796 159.664H124.96ZM122.976 154.805C124.14 154.805 124.906 155.625 124.945 156.922H120.921C121.007 155.641 121.82 154.805 122.976 154.805ZM128.108 162H130.045V157.023C130.045 155.742 130.772 154.938 131.928 154.938C133.108 154.938 133.654 155.602 133.654 156.93V162H135.592V156.477C135.592 154.445 134.553 153.297 132.647 153.297C131.373 153.297 130.514 153.875 130.108 154.828H129.975V153.461H128.108V162ZM137.786 151.367V153.516H136.434V155.023H137.786V159.734C137.786 161.383 138.567 162.039 140.528 162.039C140.903 162.039 141.263 162.008 141.544 161.953V160.469C141.309 160.492 141.161 160.508 140.888 160.508C140.075 160.508 139.716 160.125 139.716 159.273V155.023H141.544V153.516H139.716V151.367H137.786ZM145.994 158.945C146.096 160.984 147.807 162.281 150.393 162.281C153.127 162.281 154.823 160.922 154.823 158.734C154.823 157.023 153.862 156.07 151.573 155.547L150.276 155.25C148.877 154.922 148.307 154.477 148.307 153.703C148.307 152.727 149.166 152.086 150.463 152.086C151.698 152.086 152.573 152.719 152.713 153.727H154.643C154.549 151.797 152.838 150.445 150.471 150.445C147.948 150.445 146.276 151.805 146.276 153.836C146.276 155.508 147.237 156.516 149.284 156.984L150.744 157.32C152.19 157.656 152.807 158.156 152.807 158.977C152.807 159.938 151.846 160.633 150.518 160.633C149.088 160.633 148.088 159.977 147.963 158.945H145.994ZM158.438 162.141C159.556 162.141 160.493 161.656 160.97 160.828H161.103V162H162.97V156.164C162.97 154.359 161.735 153.297 159.54 153.297C157.509 153.297 156.095 154.25 155.938 155.742H157.767C157.946 155.156 158.556 154.836 159.446 154.836C160.493 154.836 161.056 155.312 161.056 156.164V156.898L158.853 157.031C156.774 157.148 155.61 158.047 155.61 159.578C155.61 161.141 156.79 162.141 158.438 162.141ZM159.009 160.648C158.149 160.648 157.532 160.219 157.532 159.484C157.532 158.773 158.04 158.375 159.126 158.305L161.056 158.172V158.867C161.056 159.883 160.181 160.648 159.009 160.648ZM165.203 151.367V153.516H163.851V155.023H165.203V159.734C165.203 161.383 165.984 162.039 167.945 162.039C168.32 162.039 168.679 162.008 168.961 161.953V160.469C168.726 160.492 168.578 160.508 168.304 160.508C167.492 160.508 167.133 160.125 167.133 159.273V155.023H168.961V153.516H167.133V151.367H165.203ZM171.163 152.031C171.803 152.031 172.327 151.523 172.327 150.883C172.327 150.25 171.803 149.734 171.163 149.734C170.53 149.734 170.006 150.25 170.006 150.883C170.006 151.523 170.53 152.031 171.163 152.031ZM170.202 162H172.131V153.461H170.202V162ZM173.622 155.898C173.622 157.18 174.396 157.93 176.036 158.305L177.552 158.656C178.364 158.844 178.732 159.156 178.732 159.641C178.732 160.289 178.052 160.734 177.075 160.734C176.107 160.734 175.505 160.344 175.318 159.711H173.404C173.552 161.25 174.896 162.172 177.029 162.172C179.161 162.172 180.669 161.086 180.669 159.453C180.669 158.195 179.911 157.5 178.279 157.125L176.771 156.789C175.911 156.586 175.505 156.281 175.505 155.797C175.505 155.164 176.169 154.734 177.052 154.734C177.958 154.734 178.529 155.125 178.669 155.727H180.489C180.349 154.188 179.075 153.297 177.044 153.297C175.029 153.297 173.622 154.367 173.622 155.898ZM182.535 162H184.465V155.023H186.301V153.516H184.441V152.727C184.441 151.914 184.801 151.508 185.715 151.508C185.988 151.508 186.223 151.531 186.379 151.555V150.156C186.066 150.102 185.715 150.078 185.301 150.078C183.402 150.078 182.535 150.914 182.535 152.617V153.516H181.137V155.023H182.535V162ZM189.542 162.141C190.659 162.141 191.596 161.656 192.073 160.828H192.206V162H194.073V156.164C194.073 154.359 192.839 153.297 190.643 153.297C188.612 153.297 187.198 154.25 187.042 155.742H188.87C189.049 155.156 189.659 154.836 190.549 154.836C191.596 154.836 192.159 155.312 192.159 156.164V156.898L189.956 157.031C187.878 157.148 186.714 158.047 186.714 159.578C186.714 161.141 187.893 162.141 189.542 162.141ZM190.112 160.648C189.253 160.648 188.635 160.219 188.635 159.484C188.635 158.773 189.143 158.375 190.229 158.305L192.159 158.172V158.867C192.159 159.883 191.284 160.648 190.112 160.648ZM203.072 156.312C202.868 154.547 201.54 153.297 199.345 153.297C196.775 153.297 195.267 154.945 195.267 157.711C195.267 160.508 196.783 162.172 199.353 162.172C201.517 162.172 202.861 160.969 203.072 159.203H201.228C201.025 160.102 200.353 160.578 199.345 160.578C198.025 160.578 197.228 159.523 197.228 157.711C197.228 155.93 198.017 154.883 199.345 154.883C200.408 154.883 201.048 155.484 201.228 156.312H203.072ZM204.93 151.367V153.516H203.578V155.023H204.93V159.734C204.93 161.383 205.711 162.039 207.672 162.039C208.047 162.039 208.406 162.008 208.688 161.953V160.469C208.453 160.492 208.305 160.508 208.031 160.508C207.219 160.508 206.859 160.125 206.859 159.273V155.023H208.688V153.516H206.859V151.367H204.93ZM210.889 152.031C211.53 152.031 212.053 151.523 212.053 150.883C212.053 150.25 211.53 149.734 210.889 149.734C210.257 149.734 209.733 150.25 209.733 150.883C209.733 151.523 210.257 152.031 210.889 152.031ZM209.928 162H211.858V153.461H209.928V162ZM217.232 162.172C219.787 162.172 221.341 160.5 221.341 157.727C221.341 154.969 219.779 153.297 217.232 153.297C214.693 153.297 213.123 154.977 213.123 157.727C213.123 160.5 214.669 162.172 217.232 162.172ZM217.232 160.586C215.88 160.586 215.107 159.539 215.107 157.734C215.107 155.93 215.88 154.883 217.232 154.883C218.576 154.883 219.349 155.93 219.349 157.734C219.349 159.539 218.583 160.586 217.232 160.586ZM222.574 162H224.512V157.023C224.512 155.742 225.238 154.938 226.395 154.938C227.574 154.938 228.121 155.602 228.121 156.93V162H230.059V156.477C230.059 154.445 229.02 153.297 227.113 153.297C225.84 153.297 224.981 153.875 224.574 154.828H224.442V153.461H222.574V162Z" fill="black"/>
<path d="M27.3907 6.72656V18H31.6172C34.9922 18 36.9219 15.9297 36.9219 12.3125C36.9219 8.77344 34.9688 6.72656 31.6172 6.72656H27.3907ZM29.4063 8.42188H31.3516C33.5626 8.42188 34.8672 9.85938 34.8672 12.3438C34.8672 14.8828 33.5938 16.3047 31.3516 16.3047H29.4063V8.42188ZM43.8816 15.6641C43.6004 16.3047 42.9363 16.6641 41.9754 16.6641C40.7019 16.6641 39.8816 15.7578 39.8347 14.3125V14.2109H45.8035V13.5938C45.8035 10.9141 44.3426 9.29688 41.9051 9.29688C39.4285 9.29688 37.8894 11.0234 37.8894 13.7656C37.8894 16.5 39.4051 18.1719 41.9207 18.1719C43.9363 18.1719 45.366 17.2031 45.7176 15.6641H43.8816ZM41.8972 10.8047C43.0613 10.8047 43.8269 11.625 43.866 12.9219H39.8426C39.9285 11.6406 40.741 10.8047 41.8972 10.8047ZM54.4116 12.3125C54.2085 10.5469 52.8804 9.29688 50.6851 9.29688C48.1147 9.29688 46.6069 10.9453 46.6069 13.7109C46.6069 16.5078 48.1226 18.1719 50.6929 18.1719C52.8569 18.1719 54.2007 16.9688 54.4116 15.2031H52.5679C52.3647 16.1016 51.6929 16.5781 50.6851 16.5781C49.3647 16.5781 48.5679 15.5234 48.5679 13.7109C48.5679 11.9297 49.3569 10.8828 50.6851 10.8828C51.7476 10.8828 52.3882 11.4844 52.5679 12.3125H54.4116ZM55.5432 18H57.4807V13.0391C57.4807 11.8359 58.3557 11.0547 59.6135 11.0547C59.9416 11.0547 60.4572 11.1094 60.6057 11.1641V9.39844C60.426 9.35156 60.0822 9.32031 59.801 9.32031C58.6994 9.32031 57.7776 9.94531 57.5432 10.7891H57.4104V9.46094H55.5432V18ZM66.831 15.6641C66.5497 16.3047 65.8857 16.6641 64.9247 16.6641C63.6513 16.6641 62.831 15.7578 62.7841 14.3125V14.2109H68.7529V13.5938C68.7529 10.9141 67.2919 9.29688 64.8544 9.29688C62.3779 9.29688 60.8388 11.0234 60.8388 13.7656C60.8388 16.5 62.3544 18.1719 64.8701 18.1719C66.8857 18.1719 68.3154 17.2031 68.6669 15.6641H66.831ZM64.8466 10.8047C66.0107 10.8047 66.7763 11.625 66.8154 12.9219H62.7919C62.8779 11.6406 63.6904 10.8047 64.8466 10.8047ZM72.3298 18.1406C73.4469 18.1406 74.3844 17.6562 74.861 16.8281H74.9938V18H76.861V12.1641C76.861 10.3594 75.6266 9.29688 73.4313 9.29688C71.4001 9.29688 69.986 10.25 69.8298 11.7422H71.6579C71.8376 11.1562 72.4469 10.8359 73.3376 10.8359C74.3844 10.8359 74.9469 11.3125 74.9469 12.1641V12.8984L72.7438 13.0312C70.6657 13.1484 69.5016 14.0469 69.5016 15.5781C69.5016 17.1406 70.6813 18.1406 72.3298 18.1406ZM72.9001 16.6484C72.0407 16.6484 71.4235 16.2188 71.4235 15.4844C71.4235 14.7734 71.9313 14.375 73.0173 14.3047L74.9469 14.1719V14.8672C74.9469 15.8828 74.0719 16.6484 72.9001 16.6484ZM78.2816 11.8984C78.2816 13.1797 79.0551 13.9297 80.6957 14.3047L82.2113 14.6562C83.0238 14.8438 83.391 15.1562 83.391 15.6406C83.391 16.2891 82.7113 16.7344 81.7347 16.7344C80.766 16.7344 80.1644 16.3438 79.9769 15.7109H78.0629C78.2113 17.25 79.5551 18.1719 81.6879 18.1719C83.8207 18.1719 85.3285 17.0859 85.3285 15.4531C85.3285 14.1953 84.5707 13.5 82.9379 13.125L81.4301 12.7891C80.5707 12.5859 80.1644 12.2812 80.1644 11.7969C80.1644 11.1641 80.8285 10.7344 81.7113 10.7344C82.6176 10.7344 83.1879 11.125 83.3285 11.7266H85.1488C85.0082 10.1875 83.7347 9.29688 81.7035 9.29688C79.6879 9.29688 78.2816 10.3672 78.2816 11.8984ZM92.1397 15.6641C91.8585 16.3047 91.1944 16.6641 90.2335 16.6641C88.9601 16.6641 88.1397 15.7578 88.0929 14.3125V14.2109H94.0616V13.5938C94.0616 10.9141 92.6007 9.29688 90.1632 9.29688C87.6866 9.29688 86.1476 11.0234 86.1476 13.7656C86.1476 16.5 87.6632 18.1719 90.1788 18.1719C92.1944 18.1719 93.6241 17.2031 93.9757 15.6641H92.1397ZM90.1554 10.8047C91.3194 10.8047 92.0851 11.625 92.1241 12.9219H88.1007C88.1866 11.6406 88.9991 10.8047 90.1554 10.8047ZM103.739 18.2812C106.34 18.2812 108.247 16.7422 108.512 14.4609H106.528C106.254 15.7266 105.168 16.5312 103.739 16.5312C101.817 16.5312 100.622 14.9297 100.622 12.3594C100.622 9.79688 101.817 8.19531 103.731 8.19531C105.153 8.19531 106.239 9.07812 106.52 10.4375H108.504C108.27 8.10156 106.293 6.44531 103.731 6.44531C100.536 6.44531 98.5591 8.70312 98.5591 12.3672C98.5591 16.0156 100.543 18.2812 103.739 18.2812ZM113.519 18.1719C116.074 18.1719 117.628 16.5 117.628 13.7266C117.628 10.9688 116.066 9.29688 113.519 9.29688C110.98 9.29688 109.409 10.9766 109.409 13.7266C109.409 16.5 110.956 18.1719 113.519 18.1719ZM113.519 16.5859C112.167 16.5859 111.394 15.5391 111.394 13.7344C111.394 11.9297 112.167 10.8828 113.519 10.8828C114.863 10.8828 115.636 11.9297 115.636 13.7344C115.636 15.5391 114.87 16.5859 113.519 16.5859ZM118.666 11.8984C118.666 13.1797 119.439 13.9297 121.08 14.3047L122.596 14.6562C123.408 14.8438 123.775 15.1562 123.775 15.6406C123.775 16.2891 123.096 16.7344 122.119 16.7344C121.15 16.7344 120.549 16.3438 120.361 15.7109H118.447C118.596 17.25 119.939 18.1719 122.072 18.1719C124.205 18.1719 125.713 17.0859 125.713 15.4531C125.713 14.1953 124.955 13.5 123.322 13.125L121.814 12.7891C120.955 12.5859 120.549 12.2812 120.549 11.7969C120.549 11.1641 121.213 10.7344 122.096 10.7344C123.002 10.7344 123.572 11.125 123.713 11.7266H125.533C125.393 10.1875 124.119 9.29688 122.088 9.29688C120.072 9.29688 118.666 10.3672 118.666 11.8984ZM127.508 7.36719V9.51562H126.157V11.0234H127.508V15.7344C127.508 17.3828 128.29 18.0391 130.251 18.0391C130.626 18.0391 130.985 18.0078 131.266 17.9531V16.4688C131.032 16.4922 130.883 16.5078 130.61 16.5078C129.798 16.5078 129.438 16.125 129.438 15.2734V11.0234H131.266V9.51562H129.438V7.36719H127.508Z" fill="black"/>
<path d="M27.3907 42.7266V54H31.6172C34.9922 54 36.9219 51.9297 36.9219 48.3125C36.9219 44.7734 34.9688 42.7266 31.6172 42.7266H27.3907ZM29.4063 44.4219H31.3516C33.5626 44.4219 34.8672 45.8594 34.8672 48.3438C34.8672 50.8828 33.5938 52.3047 31.3516 52.3047H29.4063V44.4219ZM43.8816 51.6641C43.6004 52.3047 42.9363 52.6641 41.9754 52.6641C40.7019 52.6641 39.8816 51.7578 39.8347 50.3125V50.2109H45.8035V49.5938C45.8035 46.9141 44.3426 45.2969 41.9051 45.2969C39.4285 45.2969 37.8894 47.0234 37.8894 49.7656C37.8894 52.5 39.4051 54.1719 41.9207 54.1719C43.9363 54.1719 45.366 53.2031 45.7176 51.6641H43.8816ZM41.8972 46.8047C43.0613 46.8047 43.8269 47.625 43.866 48.9219H39.8426C39.9285 47.6406 40.741 46.8047 41.8972 46.8047ZM54.4116 48.3125C54.2085 46.5469 52.8804 45.2969 50.6851 45.2969C48.1147 45.2969 46.6069 46.9453 46.6069 49.7109C46.6069 52.5078 48.1226 54.1719 50.6929 54.1719C52.8569 54.1719 54.2007 52.9688 54.4116 51.2031H52.5679C52.3647 52.1016 51.6929 52.5781 50.6851 52.5781C49.3647 52.5781 48.5679 51.5234 48.5679 49.7109C48.5679 47.9297 49.3569 46.8828 50.6851 46.8828C51.7476 46.8828 52.3882 47.4844 52.5679 48.3125H54.4116ZM55.5432 54H57.4807V49.0391C57.4807 47.8359 58.3557 47.0547 59.6135 47.0547C59.9416 47.0547 60.4572 47.1094 60.6057 47.1641V45.3984C60.426 45.3516 60.0822 45.3203 59.801 45.3203C58.6994 45.3203 57.7776 45.9453 57.5432 46.7891H57.4104V45.4609H55.5432V54ZM66.831 51.6641C66.5497 52.3047 65.8857 52.6641 64.9247 52.6641C63.6513 52.6641 62.831 51.7578 62.7841 50.3125V50.2109H68.7529V49.5938C68.7529 46.9141 67.2919 45.2969 64.8544 45.2969C62.3779 45.2969 60.8388 47.0234 60.8388 49.7656C60.8388 52.5 62.3544 54.1719 64.8701 54.1719C66.8857 54.1719 68.3154 53.2031 68.6669 51.6641H66.831ZM64.8466 46.8047C66.0107 46.8047 66.7763 47.625 66.8154 48.9219H62.7919C62.8779 47.6406 63.6904 46.8047 64.8466 46.8047ZM72.3298 54.1406C73.4469 54.1406 74.3844 53.6562 74.861 52.8281H74.9938V54H76.861V48.1641C76.861 46.3594 75.6266 45.2969 73.4313 45.2969C71.4001 45.2969 69.986 46.25 69.8298 47.7422H71.6579C71.8376 47.1562 72.4469 46.8359 73.3376 46.8359C74.3844 46.8359 74.9469 47.3125 74.9469 48.1641V48.8984L72.7438 49.0312C70.6657 49.1484 69.5016 50.0469 69.5016 51.5781C69.5016 53.1406 70.6813 54.1406 72.3298 54.1406ZM72.9001 52.6484C72.0407 52.6484 71.4235 52.2188 71.4235 51.4844C71.4235 50.7734 71.9313 50.375 73.0173 50.3047L74.9469 50.1719V50.8672C74.9469 51.8828 74.0719 52.6484 72.9001 52.6484ZM78.2816 47.8984C78.2816 49.1797 79.0551 49.9297 80.6957 50.3047L82.2113 50.6562C83.0238 50.8438 83.391 51.1562 83.391 51.6406C83.391 52.2891 82.7113 52.7344 81.7347 52.7344C80.766 52.7344 80.1644 52.3438 79.9769 51.7109H78.0629C78.2113 53.25 79.5551 54.1719 81.6879 54.1719C83.8207 54.1719 85.3285 53.0859 85.3285 51.4531C85.3285 50.1953 84.5707 49.5 82.9379 49.125L81.4301 48.7891C80.5707 48.5859 80.1644 48.2812 80.1644 47.7969C80.1644 47.1641 80.8285 46.7344 81.7113 46.7344C82.6176 46.7344 83.1879 47.125 83.3285 47.7266H85.1488C85.0082 46.1875 83.7347 45.2969 81.7035 45.2969C79.6879 45.2969 78.2816 46.3672 78.2816 47.8984ZM92.1397 51.6641C91.8585 52.3047 91.1944 52.6641 90.2335 52.6641C88.9601 52.6641 88.1397 51.7578 88.0929 50.3125V50.2109H94.0616V49.5938C94.0616 46.9141 92.6007 45.2969 90.1632 45.2969C87.6866 45.2969 86.1476 47.0234 86.1476 49.7656C86.1476 52.5 87.6632 54.1719 90.1788 54.1719C92.1944 54.1719 93.6241 53.2031 93.9757 51.6641H92.1397ZM90.1554 46.8047C91.3194 46.8047 92.0851 47.625 92.1241 48.9219H88.1007C88.1866 47.6406 88.9991 46.8047 90.1554 46.8047ZM110.676 54V42.7266H108.317L104.926 51.0938H104.786L101.395 42.7266H99.0357V54H100.911V46.0078H101.02L104.137 53.6484H105.575L108.692 46.0078H108.801V54H110.676ZM118.105 51.6641C117.824 52.3047 117.159 52.6641 116.199 52.6641C114.925 52.6641 114.105 51.7578 114.058 50.3125V50.2109H120.027V49.5938C120.027 46.9141 118.566 45.2969 116.128 45.2969C113.652 45.2969 112.113 47.0234 112.113 49.7656C112.113 52.5 113.628 54.1719 116.144 54.1719C118.159 54.1719 119.589 53.2031 119.941 51.6641H118.105ZM116.12 46.8047C117.284 46.8047 118.05 47.625 118.089 48.9219H114.066C114.152 47.6406 114.964 46.8047 116.12 46.8047ZM124.346 54.1406C125.533 54.1406 126.518 53.5859 127.002 52.6484H127.135V54H129.01V42.1562H127.072V46.8203H126.939C126.486 45.8828 125.518 45.3203 124.346 45.3203C122.189 45.3203 120.83 47.0234 120.83 49.7266C120.83 52.4375 122.182 54.1406 124.346 54.1406ZM124.947 46.9375C126.275 46.9375 127.096 48.0078 127.096 49.7344C127.096 51.4688 126.283 52.5312 124.947 52.5312C123.619 52.5312 122.814 51.4844 122.814 49.7344C122.814 47.9922 123.627 46.9375 124.947 46.9375ZM131.719 44.0312C132.36 44.0312 132.883 43.5234 132.883 42.8828C132.883 42.25 132.36 41.7344 131.719 41.7344C131.087 41.7344 130.563 42.25 130.563 42.8828C130.563 43.5234 131.087 44.0312 131.719 44.0312ZM130.758 54H132.688V45.4609H130.758V54ZM141.757 48.3125C141.554 46.5469 140.226 45.2969 138.031 45.2969C135.46 45.2969 133.953 46.9453 133.953 49.7109C133.953 52.5078 135.468 54.1719 138.038 54.1719C140.203 54.1719 141.546 52.9688 141.757 51.2031H139.913C139.71 52.1016 139.038 52.5781 138.031 52.5781C136.71 52.5781 135.913 51.5234 135.913 49.7109C135.913 47.9297 136.703 46.8828 138.031 46.8828C139.093 46.8828 139.734 47.4844 139.913 48.3125H141.757ZM145.24 54.1406C146.358 54.1406 147.295 53.6562 147.772 52.8281H147.904V54H149.772V48.1641C149.772 46.3594 148.537 45.2969 146.342 45.2969C144.311 45.2969 142.897 46.25 142.74 47.7422H144.568C144.748 47.1562 145.358 46.8359 146.248 46.8359C147.295 46.8359 147.858 47.3125 147.858 48.1641V48.8984L145.654 49.0312C143.576 49.1484 142.412 50.0469 142.412 51.5781C142.412 53.1406 143.592 54.1406 145.24 54.1406ZM145.811 52.6484C144.951 52.6484 144.334 52.2188 144.334 51.4844C144.334 50.7734 144.842 50.375 145.928 50.3047L147.858 50.1719V50.8672C147.858 51.8828 146.983 52.6484 145.811 52.6484ZM151.466 54H153.403V42.1562H151.466V54ZM166.182 52.3047H160.901V49.0781H165.893V47.4766H160.901V44.4219H166.182V42.7266H158.885V54H166.182V52.3047ZM167.759 54H169.696V49.0391C169.696 47.8359 170.571 47.0547 171.829 47.0547C172.157 47.0547 172.673 47.1094 172.821 47.1641V45.3984C172.642 45.3516 172.298 45.3203 172.017 45.3203C170.915 45.3203 169.993 45.9453 169.759 46.7891H169.626V45.4609H167.759V54ZM173.804 54H175.742V49.0391C175.742 47.8359 176.617 47.0547 177.875 47.0547C178.203 47.0547 178.718 47.1094 178.867 47.1641V45.3984C178.687 45.3516 178.343 45.3203 178.062 45.3203C176.961 45.3203 176.039 45.9453 175.804 46.7891H175.672V45.4609H173.804V54ZM183.209 54.1719C185.764 54.1719 187.319 52.5 187.319 49.7266C187.319 46.9688 185.756 45.2969 183.209 45.2969C180.67 45.2969 179.1 46.9766 179.1 49.7266C179.1 52.5 180.647 54.1719 183.209 54.1719ZM183.209 52.5859C181.858 52.5859 181.084 51.5391 181.084 49.7344C181.084 47.9297 181.858 46.8828 183.209 46.8828C184.553 46.8828 185.327 47.9297 185.327 49.7344C185.327 51.5391 184.561 52.5859 183.209 52.5859ZM188.552 54H190.489V49.0391C190.489 47.8359 191.364 47.0547 192.622 47.0547C192.95 47.0547 193.466 47.1094 193.614 47.1641V45.3984C193.435 45.3516 193.091 45.3203 192.81 45.3203C191.708 45.3203 190.786 45.9453 190.552 46.7891H190.419V45.4609H188.552V54ZM194.105 47.8984C194.105 49.1797 194.879 49.9297 196.519 50.3047L198.035 50.6562C198.848 50.8438 199.215 51.1562 199.215 51.6406C199.215 52.2891 198.535 52.7344 197.559 52.7344C196.59 52.7344 195.988 52.3438 195.801 51.7109H193.887C194.035 53.25 195.379 54.1719 197.512 54.1719C199.644 54.1719 201.152 53.0859 201.152 51.4531C201.152 50.1953 200.394 49.5 198.762 49.125L197.254 48.7891C196.394 48.5859 195.988 48.2812 195.988 47.7969C195.988 47.1641 196.652 46.7344 197.535 46.7344C198.441 46.7344 199.012 47.125 199.152 47.7266H200.973C200.832 46.1875 199.559 45.2969 197.527 45.2969C195.512 45.2969 194.105 46.3672 194.105 47.8984Z" fill="black"/>
<path d="M39.0313 90V78.7266H36.6719L33.2813 87.0938H33.1407L29.7501 78.7266H27.3907V90H29.2657V82.0078H29.3751L32.4922 89.6484H33.9297L37.0469 82.0078H37.1563V90H39.0313ZM43.241 90.1406C44.3582 90.1406 45.2957 89.6562 45.7722 88.8281H45.9051V90H47.7722V84.1641C47.7722 82.3594 46.5379 81.2969 44.3426 81.2969C42.3113 81.2969 40.8972 82.25 40.741 83.7422H42.5691C42.7488 83.1562 43.3582 82.8359 44.2488 82.8359C45.2957 82.8359 45.8582 83.3125 45.8582 84.1641V84.8984L43.6551 85.0312C41.5769 85.1484 40.4129 86.0469 40.4129 87.5781C40.4129 89.1406 41.5926 90.1406 43.241 90.1406ZM43.8113 88.6484C42.9519 88.6484 42.3347 88.2188 42.3347 87.4844C42.3347 86.7734 42.8426 86.375 43.9285 86.3047L45.8582 86.1719V86.8672C45.8582 87.8828 44.9832 88.6484 43.8113 88.6484ZM50.3726 80.0312C51.0132 80.0312 51.5366 79.5234 51.5366 78.8828C51.5366 78.25 51.0132 77.7344 50.3726 77.7344C49.7397 77.7344 49.2163 78.25 49.2163 78.8828C49.2163 79.5234 49.7397 80.0312 50.3726 80.0312ZM49.4116 90H51.3413V81.4609H49.4116V90ZM53.0276 90H54.9651V85.0234C54.9651 83.7422 55.6916 82.9375 56.8479 82.9375C58.0276 82.9375 58.5744 83.6016 58.5744 84.9297V90H60.5119V84.4766C60.5119 82.4453 59.4729 81.2969 57.5666 81.2969C56.2932 81.2969 55.4338 81.875 55.0276 82.8281H54.8947V81.4609H53.0276V90ZM62.706 79.3672V81.5156H61.3544V83.0234H62.706V87.7344C62.706 89.3828 63.4872 90.0391 65.4482 90.0391C65.8232 90.0391 66.1826 90.0078 66.4638 89.9531V88.4688C66.2294 88.4922 66.081 88.5078 65.8076 88.5078C64.9951 88.5078 64.6357 88.125 64.6357 87.2734V83.0234H66.4638V81.5156H64.6357V79.3672H62.706ZM70.0329 90.1406C71.1501 90.1406 72.0876 89.6562 72.5641 88.8281H72.6969V90H74.5641V84.1641C74.5641 82.3594 73.3298 81.2969 71.1344 81.2969C69.1032 81.2969 67.6891 82.25 67.5329 83.7422H69.361C69.5407 83.1562 70.1501 82.8359 71.0407 82.8359C72.0876 82.8359 72.6501 83.3125 72.6501 84.1641V84.8984L70.4469 85.0312C68.3688 85.1484 67.2048 86.0469 67.2048 87.5781C67.2048 89.1406 68.3844 90.1406 70.0329 90.1406ZM70.6032 88.6484C69.7438 88.6484 69.1266 88.2188 69.1266 87.4844C69.1266 86.7734 69.6344 86.375 70.7204 86.3047L72.6501 86.1719V86.8672C72.6501 87.8828 71.7751 88.6484 70.6032 88.6484ZM77.1644 80.0312C77.8051 80.0312 78.3285 79.5234 78.3285 78.8828C78.3285 78.25 77.8051 77.7344 77.1644 77.7344C76.5316 77.7344 76.0082 78.25 76.0082 78.8828C76.0082 79.5234 76.5316 80.0312 77.1644 80.0312ZM76.2035 90H78.1332V81.4609H76.2035V90ZM79.8194 90H81.7569V85.0234C81.7569 83.7422 82.4835 82.9375 83.6397 82.9375C84.8194 82.9375 85.3663 83.6016 85.3663 84.9297V90H87.3038V84.4766C87.3038 82.4453 86.2647 81.2969 84.3585 81.2969C83.0851 81.2969 82.2257 81.875 81.8194 82.8281H81.6866V81.4609H79.8194V90ZM92.3091 82.0625H94.1997C94.1997 80.875 94.981 80.0625 96.2076 80.0625C97.3872 80.0625 98.0904 80.8516 98.0904 81.875C98.0904 82.7344 97.7466 83.2734 96.3247 84.7109L92.4185 88.6406V90H100.247V88.3281H95.1529V88.1953L97.5747 85.8125C99.5122 83.9141 100.083 83 100.083 81.6875C100.083 79.8125 98.5591 78.4453 96.3169 78.4453C93.9654 78.4453 92.3091 79.9297 92.3091 82.0625ZM105.917 90.2812C108.613 90.2812 110.214 88.1016 110.214 84.3672C110.214 80.625 108.589 78.4453 105.917 78.4453C103.238 78.4453 101.613 80.625 101.613 84.3516C101.613 88.0938 103.214 90.2812 105.917 90.2812ZM105.917 88.6484C104.488 88.6484 103.652 87.1641 103.652 84.3516C103.652 81.5625 104.503 80.0859 105.917 80.0859C107.331 80.0859 108.175 81.5547 108.175 84.3516C108.175 87.1719 107.347 88.6484 105.917 88.6484ZM127.094 90V78.7266H124.735L121.344 87.0938H121.204L117.813 78.7266H115.454V90H117.329V82.0078H117.438L120.555 89.6484H121.993L125.11 82.0078H125.219V90H127.094ZM129.937 80.0312C130.578 80.0312 131.101 79.5234 131.101 78.8828C131.101 78.25 130.578 77.7344 129.937 77.7344C129.304 77.7344 128.781 78.25 128.781 78.8828C128.781 79.5234 129.304 80.0312 129.937 80.0312ZM128.976 90H130.906V81.4609H128.976V90ZM132.592 90H134.529V85.0234C134.529 83.7422 135.256 82.9375 136.412 82.9375C137.592 82.9375 138.139 83.6016 138.139 84.9297V90H140.076V84.4766C140.076 82.4453 139.037 81.2969 137.131 81.2969C135.858 81.2969 134.998 81.875 134.592 82.8281H134.459V81.4609H132.592V90ZM149.091 81.4609H147.153V86.4375C147.153 87.7266 146.466 88.5078 145.208 88.5078C144.052 88.5078 143.513 87.8672 143.513 86.5391V81.4609H141.575V87.0078C141.575 89.0078 142.669 90.1719 144.536 90.1719C145.841 90.1719 146.677 89.6172 147.091 88.6406H147.223V90H149.091V81.4609ZM151.363 79.3672V81.5156H150.011V83.0234H151.363V87.7344C151.363 89.3828 152.144 90.0391 154.105 90.0391C154.48 90.0391 154.839 90.0078 155.121 89.9531V88.4688C154.886 88.4922 154.738 88.5078 154.464 88.5078C153.652 88.5078 153.293 88.125 153.293 87.2734V83.0234H155.121V81.5156H153.293V79.3672H151.363ZM161.83 87.6641C161.549 88.3047 160.885 88.6641 159.924 88.6641C158.651 88.6641 157.83 87.7578 157.783 86.3125V86.2109H163.752V85.5938C163.752 82.9141 162.291 81.2969 159.854 81.2969C157.377 81.2969 155.838 83.0234 155.838 85.7656C155.838 88.5 157.354 90.1719 159.869 90.1719C161.885 90.1719 163.315 89.2031 163.666 87.6641H161.83ZM159.846 82.8047C161.01 82.8047 161.776 83.625 161.815 84.9219H157.791C157.877 83.6406 158.69 82.8047 159.846 82.8047ZM174.148 90L178.047 78.7266H175.898L173.086 87.6953H172.953L170.117 78.7266H167.89L171.828 90H174.148ZM180.053 80.0312C180.694 80.0312 181.217 79.5234 181.217 78.8828C181.217 78.25 180.694 77.7344 180.053 77.7344C179.42 77.7344 178.897 78.25 178.897 78.8828C178.897 79.5234 179.42 80.0312 180.053 80.0312ZM179.092 90H181.022V81.4609H179.092V90ZM182.513 83.8984C182.513 85.1797 183.286 85.9297 184.927 86.3047L186.443 86.6562C187.255 86.8438 187.622 87.1562 187.622 87.6406C187.622 88.2891 186.943 88.7344 185.966 88.7344C184.997 88.7344 184.396 88.3438 184.208 87.7109H182.294C182.443 89.25 183.786 90.1719 185.919 90.1719C188.052 90.1719 189.56 89.0859 189.56 87.4531C189.56 86.1953 188.802 85.5 187.169 85.125L185.661 84.7891C184.802 84.5859 184.396 84.2812 184.396 83.7969C184.396 83.1641 185.06 82.7344 185.943 82.7344C186.849 82.7344 187.419 83.125 187.56 83.7266H189.38C189.239 82.1875 187.966 81.2969 185.935 81.2969C183.919 81.2969 182.513 82.3672 182.513 83.8984ZM191.785 80.0312C192.426 80.0312 192.949 79.5234 192.949 78.8828C192.949 78.25 192.426 77.7344 191.785 77.7344C191.152 77.7344 190.629 78.25 190.629 78.8828C190.629 79.5234 191.152 80.0312 191.785 80.0312ZM190.824 90H192.754V81.4609H190.824V90ZM195.057 79.3672V81.5156H193.706V83.0234H195.057V87.7344C195.057 89.3828 195.839 90.0391 197.799 90.0391C198.174 90.0391 198.534 90.0078 198.815 89.9531V88.4688C198.581 88.4922 198.432 88.5078 198.159 88.5078C197.346 88.5078 196.987 88.125 196.987 87.2734V83.0234H198.815V81.5156H196.987V79.3672H195.057ZM203.266 86.9453C203.367 88.9844 205.078 90.2812 207.664 90.2812C210.398 90.2812 212.094 88.9219 212.094 86.7344C212.094 85.0234 211.133 84.0703 208.844 83.5469L207.547 83.25C206.148 82.9219 205.578 82.4766 205.578 81.7031C205.578 80.7266 206.438 80.0859 207.734 80.0859C208.969 80.0859 209.844 80.7188 209.984 81.7266H211.914C211.82 79.7969 210.109 78.4453 207.742 78.4453C205.219 78.4453 203.547 79.8047 203.547 81.8359C203.547 83.5078 204.508 84.5156 206.555 84.9844L208.016 85.3203C209.461 85.6562 210.078 86.1562 210.078 86.9766C210.078 87.9375 209.117 88.6328 207.789 88.6328C206.359 88.6328 205.359 87.9766 205.234 86.9453H203.266ZM220.819 84.3125C220.616 82.5469 219.288 81.2969 217.093 81.2969C214.522 81.2969 213.014 82.9453 213.014 85.7109C213.014 88.5078 214.53 90.1719 217.1 90.1719C219.264 90.1719 220.608 88.9688 220.819 87.2031H218.975C218.772 88.1016 218.1 88.5781 217.093 88.5781C215.772 88.5781 214.975 87.5234 214.975 85.7109C214.975 83.9297 215.764 82.8828 217.093 82.8828C218.155 82.8828 218.796 83.4844 218.975 84.3125H220.819ZM222.029 90H223.966V85.0391C223.966 83.7891 224.677 82.9531 225.951 82.9531C227.076 82.9531 227.669 83.625 227.669 84.9453V90H229.607V84.4922C229.607 82.4609 228.498 81.3047 226.669 81.3047C225.396 81.3047 224.482 81.8828 224.076 82.8438H223.935V78.1562H222.029V90ZM236.754 87.6641C236.473 88.3047 235.809 88.6641 234.848 88.6641C233.574 88.6641 232.754 87.7578 232.707 86.3125V86.2109H238.676V85.5938C238.676 82.9141 237.215 81.2969 234.778 81.2969C232.301 81.2969 230.762 83.0234 230.762 85.7656C230.762 88.5 232.278 90.1719 234.793 90.1719C236.809 90.1719 238.238 89.2031 238.59 87.6641H236.754ZM234.77 82.8047C235.934 82.8047 236.699 83.625 236.738 84.9219H232.715C232.801 83.6406 233.613 82.8047 234.77 82.8047ZM242.995 90.1406C244.183 90.1406 245.167 89.5859 245.651 88.6484H245.784V90H247.659V78.1562H245.722V82.8203H245.589C245.136 81.8828 244.167 81.3203 242.995 81.3203C240.839 81.3203 239.479 83.0234 239.479 85.7266C239.479 88.4375 240.831 90.1406 242.995 90.1406ZM243.597 82.9375C244.925 82.9375 245.745 84.0078 245.745 85.7344C245.745 87.4688 244.933 88.5312 243.597 88.5312C242.268 88.5312 241.464 87.4844 241.464 85.7344C241.464 83.9922 242.276 82.9375 243.597 82.9375ZM256.822 81.4609H254.884V86.4375C254.884 87.7266 254.197 88.5078 252.939 88.5078C251.783 88.5078 251.244 87.8672 251.244 86.5391V81.4609H249.306V87.0078C249.306 89.0078 250.4 90.1719 252.267 90.1719C253.572 90.1719 254.408 89.6172 254.822 88.6406H254.955V90H256.822V81.4609ZM258.555 90H260.493V78.1562H258.555V90ZM267.796 87.6641C267.515 88.3047 266.851 88.6641 265.89 88.6641C264.616 88.6641 263.796 87.7578 263.749 86.3125V86.2109H269.718V85.5938C269.718 82.9141 268.257 81.2969 265.819 81.2969C263.343 81.2969 261.804 83.0234 261.804 85.7656C261.804 88.5 263.319 90.1719 265.835 90.1719C267.851 90.1719 269.28 89.2031 269.632 87.6641H267.796ZM265.812 82.8047C266.976 82.8047 267.741 83.625 267.78 84.9219H263.757C263.843 83.6406 264.655 82.8047 265.812 82.8047Z" fill="black"/>
<circle cx="9" cy="85" r="4" stroke="#57AEFF" stroke-width="3"/>
</svg>
