<svg width="313" height="279" viewBox="0 0 313 279" fill="none" xmlns="http://www.w3.org/2000/svg">
<rect width="313" height="279" fill="white"/>
<path d="M110.875 14.9453C110.977 16.9844 112.688 18.2812 115.273 18.2812C118.008 18.2812 119.703 16.9219 119.703 14.7344C119.703 13.0234 118.742 12.0703 116.453 11.5469L115.156 11.25C113.758 10.9219 113.188 10.4766 113.188 9.70312C113.188 8.72656 114.047 8.08594 115.344 8.08594C116.578 8.08594 117.453 8.71875 117.594 9.72656H119.523C119.43 7.79688 117.719 6.44531 115.352 6.44531C112.828 6.44531 111.156 7.80469 111.156 9.83594C111.156 11.5078 112.117 12.5156 114.164 12.9844L115.625 13.3203C117.07 13.6562 117.688 14.1562 117.688 14.9766C117.688 15.9375 116.727 16.6328 115.398 16.6328C113.969 16.6328 112.969 15.9766 112.844 14.9453H110.875ZM121.663 7.36719V9.51562H120.311V11.0234H121.663V15.7344C121.663 17.3828 122.444 18.0391 124.405 18.0391C124.78 18.0391 125.139 18.0078 125.421 17.9531V16.4688C125.186 16.4922 125.038 16.5078 124.764 16.5078C123.952 16.5078 123.592 16.125 123.592 15.2734V11.0234H125.421V9.51562H123.592V7.36719H121.663ZM126.638 18H128.576V13.0391C128.576 11.8359 129.451 11.0547 130.708 11.0547C131.037 11.0547 131.552 11.1094 131.701 11.1641V9.39844C131.521 9.35156 131.177 9.32031 130.896 9.32031C129.794 9.32031 128.872 9.94531 128.638 10.7891H128.505V9.46094H126.638V18ZM137.926 15.6641C137.645 16.3047 136.981 16.6641 136.02 16.6641C134.746 16.6641 133.926 15.7578 133.879 14.3125V14.2109H139.848V13.5938C139.848 10.9141 138.387 9.29688 135.949 9.29688C133.473 9.29688 131.934 11.0234 131.934 13.7656C131.934 16.5 133.449 18.1719 135.965 18.1719C137.981 18.1719 139.41 17.2031 139.762 15.6641H137.926ZM135.942 10.8047C137.106 10.8047 137.871 11.625 137.91 12.9219H133.887C133.973 11.6406 134.785 10.8047 135.942 10.8047ZM140.878 11.8984C140.878 13.1797 141.651 13.9297 143.292 14.3047L144.807 14.6562C145.62 14.8438 145.987 15.1562 145.987 15.6406C145.987 16.2891 145.307 16.7344 144.331 16.7344C143.362 16.7344 142.761 16.3438 142.573 15.7109H140.659C140.807 17.25 142.151 18.1719 144.284 18.1719C146.417 18.1719 147.925 17.0859 147.925 15.4531C147.925 14.1953 147.167 13.5 145.534 13.125L144.026 12.7891C143.167 12.5859 142.761 12.2812 142.761 11.7969C142.761 11.1641 143.425 10.7344 144.307 10.7344C145.214 10.7344 145.784 11.125 145.925 11.7266H147.745C147.604 10.1875 146.331 9.29688 144.3 9.29688C142.284 9.29688 140.878 10.3672 140.878 11.8984ZM148.814 11.8984C148.814 13.1797 149.588 13.9297 151.228 14.3047L152.744 14.6562C153.556 14.8438 153.923 15.1562 153.923 15.6406C153.923 16.2891 153.244 16.7344 152.267 16.7344C151.298 16.7344 150.697 16.3438 150.509 15.7109H148.595C148.744 17.25 150.088 18.1719 152.22 18.1719C154.353 18.1719 155.861 17.0859 155.861 15.4531C155.861 14.1953 155.103 13.5 153.47 13.125L151.963 12.7891C151.103 12.5859 150.697 12.2812 150.697 11.7969C150.697 11.1641 151.361 10.7344 152.244 10.7344C153.15 10.7344 153.72 11.125 153.861 11.7266H155.681C155.541 10.1875 154.267 9.29688 152.236 9.29688C150.22 9.29688 148.814 10.3672 148.814 11.8984ZM160.647 18H162.585V13.0391C162.585 11.8359 163.46 11.0547 164.718 11.0547C165.046 11.0547 165.562 11.1094 165.71 11.1641V9.39844C165.53 9.35156 165.187 9.32031 164.905 9.32031C163.804 9.32031 162.882 9.94531 162.647 10.7891H162.515V9.46094H160.647V18ZM171.935 15.6641C171.654 16.3047 170.99 16.6641 170.029 16.6641C168.756 16.6641 167.935 15.7578 167.888 14.3125V14.2109H173.857V13.5938C173.857 10.9141 172.396 9.29688 169.959 9.29688C167.482 9.29688 165.943 11.0234 165.943 13.7656C165.943 16.5 167.459 18.1719 169.974 18.1719C171.99 18.1719 173.42 17.2031 173.771 15.6641H171.935ZM169.951 10.8047C171.115 10.8047 171.881 11.625 171.92 12.9219H167.896C167.982 11.6406 168.795 10.8047 169.951 10.8047ZM178.176 18.1406C179.364 18.1406 180.348 17.5859 180.833 16.6484H180.965V18H182.84V6.15625H180.903V10.8203H180.77C180.317 9.88281 179.348 9.32031 178.176 9.32031C176.02 9.32031 174.661 11.0234 174.661 13.7266C174.661 16.4375 176.012 18.1406 178.176 18.1406ZM178.778 10.9375C180.106 10.9375 180.926 12.0078 180.926 13.7344C180.926 15.4688 180.114 16.5312 178.778 16.5312C177.45 16.5312 176.645 15.4844 176.645 13.7344C176.645 11.9922 177.458 10.9375 178.778 10.9375ZM192.003 9.46094H190.066V14.4375C190.066 15.7266 189.378 16.5078 188.12 16.5078C186.964 16.5078 186.425 15.8672 186.425 14.5391V9.46094H184.488V15.0078C184.488 17.0078 185.581 18.1719 187.448 18.1719C188.753 18.1719 189.589 17.6172 190.003 16.6406H190.136V18H192.003V9.46094ZM201.041 12.3125C200.838 10.5469 199.51 9.29688 197.314 9.29688C194.744 9.29688 193.236 10.9453 193.236 13.7109C193.236 16.5078 194.752 18.1719 197.322 18.1719C199.486 18.1719 200.83 16.9688 201.041 15.2031H199.197C198.994 16.1016 198.322 16.5781 197.314 16.5781C195.994 16.5781 195.197 15.5234 195.197 13.7109C195.197 11.9297 195.986 10.8828 197.314 10.8828C198.377 10.8828 199.018 11.4844 199.197 12.3125H201.041ZM202.899 7.36719V9.51562H201.548V11.0234H202.899V15.7344C202.899 17.3828 203.68 18.0391 205.641 18.0391C206.016 18.0391 206.376 18.0078 206.657 17.9531V16.4688C206.423 16.4922 206.274 16.5078 206.001 16.5078C205.188 16.5078 204.829 16.125 204.829 15.2734V11.0234H206.657V9.51562H204.829V7.36719H202.899ZM208.859 8.03125C209.499 8.03125 210.023 7.52344 210.023 6.88281C210.023 6.25 209.499 5.73438 208.859 5.73438C208.226 5.73438 207.702 6.25 207.702 6.88281C207.702 7.52344 208.226 8.03125 208.859 8.03125ZM207.898 18H209.827V9.46094H207.898V18ZM215.201 18.1719C217.756 18.1719 219.311 16.5 219.311 13.7266C219.311 10.9688 217.748 9.29688 215.201 9.29688C212.662 9.29688 211.092 10.9766 211.092 13.7266C211.092 16.5 212.639 18.1719 215.201 18.1719ZM215.201 16.5859C213.85 16.5859 213.076 15.5391 213.076 13.7344C213.076 11.9297 213.85 10.8828 215.201 10.8828C216.545 10.8828 217.318 11.9297 217.318 13.7344C217.318 15.5391 216.553 16.5859 215.201 16.5859ZM220.544 18H222.481V13.0234C222.481 11.7422 223.208 10.9375 224.364 10.9375C225.544 10.9375 226.091 11.6016 226.091 12.9297V18H228.028V12.4766C228.028 10.4453 226.989 9.29688 225.083 9.29688C223.809 9.29688 222.95 9.875 222.544 10.8281H222.411V9.46094H220.544V18ZM233.768 7.36719V9.51562H232.416V11.0234H233.768V15.7344C233.768 17.3828 234.549 18.0391 236.51 18.0391C236.885 18.0391 237.244 18.0078 237.526 17.9531V16.4688C237.291 16.4922 237.143 16.5078 236.869 16.5078C236.057 16.5078 235.698 16.125 235.698 15.2734V11.0234H237.526V9.51562H235.698V7.36719H233.768ZM244.235 15.6641C243.954 16.3047 243.29 16.6641 242.329 16.6641C241.056 16.6641 240.235 15.7578 240.188 14.3125V14.2109H246.157V13.5938C246.157 10.9141 244.696 9.29688 242.259 9.29688C239.782 9.29688 238.243 11.0234 238.243 13.7656C238.243 16.5 239.759 18.1719 242.274 18.1719C244.29 18.1719 245.72 17.2031 246.071 15.6641H244.235ZM242.251 10.8047C243.415 10.8047 244.181 11.625 244.22 12.9219H240.196C240.282 11.6406 241.095 10.8047 242.251 10.8047ZM254.765 12.3125C254.562 10.5469 253.234 9.29688 251.039 9.29688C248.468 9.29688 246.961 10.9453 246.961 13.7109C246.961 16.5078 248.476 18.1719 251.047 18.1719C253.211 18.1719 254.554 16.9688 254.765 15.2031H252.922C252.718 16.1016 252.047 16.5781 251.039 16.5781C249.718 16.5781 248.922 15.5234 248.922 13.7109C248.922 11.9297 249.711 10.8828 251.039 10.8828C252.101 10.8828 252.742 11.4844 252.922 12.3125H254.765ZM255.975 18H257.913V13.0391C257.913 11.7891 258.623 10.9531 259.897 10.9531C261.022 10.9531 261.616 11.625 261.616 12.9453V18H263.553V12.4922C263.553 10.4609 262.444 9.30469 260.616 9.30469C259.342 9.30469 258.428 9.88281 258.022 10.8438H257.881V6.15625H255.975V18ZM265.13 18H267.068V13.0234C267.068 11.7422 267.794 10.9375 268.95 10.9375C270.13 10.9375 270.677 11.6016 270.677 12.9297V18H272.614V12.4766C272.614 10.4453 271.575 9.29688 269.669 9.29688C268.396 9.29688 267.536 9.875 267.13 10.8281H266.997V9.46094H265.13V18ZM275.176 8.03125C275.816 8.03125 276.34 7.52344 276.34 6.88281C276.34 6.25 275.816 5.73438 275.176 5.73438C274.543 5.73438 274.019 6.25 274.019 6.88281C274.019 7.52344 274.543 8.03125 275.176 8.03125ZM274.215 18H276.144V9.46094H274.215V18ZM280.932 9.32031C278.776 9.32031 277.409 11.0312 277.409 13.7266C277.409 16.4375 278.745 18.1406 280.901 18.1406C282.112 18.1406 283.01 17.625 283.503 16.7031H283.635V20.8359H285.588V9.46094H283.706V10.875H283.573C283.104 9.92969 282.088 9.32031 280.932 9.32031ZM281.51 16.5312C280.182 16.5312 279.393 15.4844 279.393 13.7344C279.393 11.9844 280.19 10.9375 281.518 10.9375C282.838 10.9375 283.674 12.0078 283.674 13.7344C283.674 15.4688 282.846 16.5312 281.51 16.5312ZM294.673 9.46094H292.736V14.4375C292.736 15.7266 292.048 16.5078 290.79 16.5078C289.634 16.5078 289.095 15.8672 289.095 14.5391V9.46094H287.158V15.0078C287.158 17.0078 288.251 18.1719 290.118 18.1719C291.423 18.1719 292.259 17.6172 292.673 16.6406H292.806V18H294.673V9.46094ZM301.898 15.6641C301.617 16.3047 300.953 16.6641 299.992 16.6641C298.719 16.6641 297.898 15.7578 297.852 14.3125V14.2109H303.82V13.5938C303.82 10.9141 302.359 9.29688 299.922 9.29688C297.445 9.29688 295.906 11.0234 295.906 13.7656C295.906 16.5 297.422 18.1719 299.938 18.1719C301.953 18.1719 303.383 17.2031 303.734 15.6641H301.898ZM299.914 10.8047C301.078 10.8047 301.844 11.625 301.883 12.9219H297.859C297.945 11.6406 298.758 10.8047 299.914 10.8047ZM304.85 11.8984C304.85 13.1797 305.624 13.9297 307.264 14.3047L308.78 14.6562C309.592 14.8438 309.96 15.1562 309.96 15.6406C309.96 16.2891 309.28 16.7344 308.303 16.7344C307.335 16.7344 306.733 16.3438 306.546 15.7109H304.632C304.78 17.25 306.124 18.1719 308.257 18.1719C310.389 18.1719 311.897 17.0859 311.897 15.4531C311.897 14.1953 311.139 13.5 309.507 13.125L307.999 12.7891C307.139 12.5859 306.733 12.2812 306.733 11.7969C306.733 11.1641 307.397 10.7344 308.28 10.7344C309.186 10.7344 309.757 11.125 309.897 11.7266H311.717C311.577 10.1875 310.303 9.29688 308.272 9.29688C306.257 9.29688 304.85 10.3672 304.85 11.8984ZM123.031 43V31.7266H120.672L117.281 40.0938H117.141L113.75 31.7266H111.391V43H113.266V35.0078H113.375L116.492 42.6484H117.93L121.047 35.0078H121.156V43H123.031ZM125.874 33.0312C126.514 33.0312 127.038 32.5234 127.038 31.8828C127.038 31.25 126.514 30.7344 125.874 30.7344C125.241 30.7344 124.717 31.25 124.717 31.8828C124.717 32.5234 125.241 33.0312 125.874 33.0312ZM124.913 43H126.842V34.4609H124.913V43ZM128.529 43H130.466V38.0234C130.466 36.7422 131.193 35.9375 132.349 35.9375C133.529 35.9375 134.076 36.6016 134.076 37.9297V43H136.013V37.4766C136.013 35.4453 134.974 34.2969 133.068 34.2969C131.794 34.2969 130.935 34.875 130.529 35.8281H130.396V34.4609H128.529V43ZM140.684 43.1406C141.871 43.1406 142.856 42.5859 143.34 41.6484H143.473V43H145.348V31.1562H143.41V35.8203H143.278C142.824 34.8828 141.856 34.3203 140.684 34.3203C138.528 34.3203 137.168 36.0234 137.168 38.7266C137.168 41.4375 138.52 43.1406 140.684 43.1406ZM141.285 35.9375C142.613 35.9375 143.434 37.0078 143.434 38.7344C143.434 40.4688 142.621 41.5312 141.285 41.5312C139.957 41.5312 139.153 40.4844 139.153 38.7344C139.153 36.9922 139.965 35.9375 141.285 35.9375ZM147.698 43H149.628V36.0234H151.464V34.5156H149.604V33.7266C149.604 32.9141 149.964 32.5078 150.878 32.5078C151.151 32.5078 151.386 32.5312 151.542 32.5547V31.1562C151.229 31.1016 150.878 31.0781 150.464 31.0781C148.565 31.0781 147.698 31.9141 147.698 33.6172V34.5156H146.3V36.0234H147.698V43ZM160.056 34.4609H158.119V39.4375C158.119 40.7266 157.431 41.5078 156.173 41.5078C155.017 41.5078 154.478 40.8672 154.478 39.5391V34.4609H152.541V40.0078C152.541 42.0078 153.634 43.1719 155.502 43.1719C156.806 43.1719 157.642 42.6172 158.056 41.6406H158.189V43H160.056V34.4609ZM161.789 43H163.727V31.1562H161.789V43ZM165.46 43H167.397V38.0234C167.397 36.7422 168.124 35.9375 169.28 35.9375C170.46 35.9375 171.007 36.6016 171.007 37.9297V43H172.944V37.4766C172.944 35.4453 171.905 34.2969 169.999 34.2969C168.726 34.2969 167.866 34.875 167.46 35.8281H167.327V34.4609H165.46V43ZM180.092 40.6641C179.81 41.3047 179.146 41.6641 178.185 41.6641C176.912 41.6641 176.092 40.7578 176.045 39.3125V39.2109H182.013V38.5938C182.013 35.9141 180.552 34.2969 178.115 34.2969C175.638 34.2969 174.099 36.0234 174.099 38.7656C174.099 41.5 175.615 43.1719 178.131 43.1719C180.146 43.1719 181.576 42.2031 181.927 40.6641H180.092ZM178.107 35.8047C179.271 35.8047 180.037 36.625 180.076 37.9219H176.052C176.138 36.6406 176.951 35.8047 178.107 35.8047ZM183.043 36.8984C183.043 38.1797 183.817 38.9297 185.457 39.3047L186.973 39.6562C187.786 39.8438 188.153 40.1562 188.153 40.6406C188.153 41.2891 187.473 41.7344 186.497 41.7344C185.528 41.7344 184.926 41.3438 184.739 40.7109H182.825C182.973 42.25 184.317 43.1719 186.45 43.1719C188.582 43.1719 190.09 42.0859 190.09 40.4531C190.09 39.1953 189.332 38.5 187.7 38.125L186.192 37.7891C185.332 37.5859 184.926 37.2812 184.926 36.7969C184.926 36.1641 185.59 35.7344 186.473 35.7344C187.379 35.7344 187.95 36.125 188.09 36.7266H189.911C189.77 35.1875 188.497 34.2969 186.465 34.2969C184.45 34.2969 183.043 35.3672 183.043 36.8984ZM190.98 36.8984C190.98 38.1797 191.753 38.9297 193.394 39.3047L194.909 39.6562C195.722 39.8438 196.089 40.1562 196.089 40.6406C196.089 41.2891 195.409 41.7344 194.433 41.7344C193.464 41.7344 192.863 41.3438 192.675 40.7109H190.761C190.909 42.25 192.253 43.1719 194.386 43.1719C196.519 43.1719 198.027 42.0859 198.027 40.4531C198.027 39.1953 197.269 38.5 195.636 38.125L194.128 37.7891C193.269 37.5859 192.863 37.2812 192.863 36.7969C192.863 36.1641 193.527 35.7344 194.409 35.7344C195.316 35.7344 195.886 36.125 196.027 36.7266H197.847C197.706 35.1875 196.433 34.2969 194.402 34.2969C192.386 34.2969 190.98 35.3672 190.98 36.8984ZM208.383 40.6641C208.102 41.3047 207.438 41.6641 206.477 41.6641C205.204 41.6641 204.383 40.7578 204.337 39.3125V39.2109H210.305V38.5938C210.305 35.9141 208.844 34.2969 206.407 34.2969C203.93 34.2969 202.391 36.0234 202.391 38.7656C202.391 41.5 203.907 43.1719 206.423 43.1719C208.438 43.1719 209.868 42.2031 210.219 40.6641H208.383ZM206.399 35.8047C207.563 35.8047 208.329 36.625 208.368 37.9219H204.344C204.43 36.6406 205.243 35.8047 206.399 35.8047ZM214.507 40.0469L216.257 43.0156H218.445L215.656 38.6953L218.413 34.4766H216.281L214.593 37.4375H214.46L212.765 34.4766H210.515L213.304 38.7812L210.538 43.0156H212.632L214.374 40.0469H214.507ZM224.568 40.6641C224.287 41.3047 223.623 41.6641 222.662 41.6641C221.389 41.6641 220.568 40.7578 220.522 39.3125V39.2109H226.49V38.5938C226.49 35.9141 225.029 34.2969 222.592 34.2969C220.115 34.2969 218.576 36.0234 218.576 38.7656C218.576 41.5 220.092 43.1719 222.607 43.1719C224.623 43.1719 226.053 42.2031 226.404 40.6641H224.568ZM222.584 35.8047C223.748 35.8047 224.514 36.625 224.553 37.9219H220.529C220.615 36.6406 221.428 35.8047 222.584 35.8047ZM227.716 43H229.653V38.0391C229.653 36.8359 230.528 36.0547 231.786 36.0547C232.114 36.0547 232.63 36.1094 232.778 36.1641V34.3984C232.598 34.3516 232.255 34.3203 231.973 34.3203C230.872 34.3203 229.95 34.9453 229.716 35.7891H229.583V34.4609H227.716V43ZM240.816 37.3125C240.613 35.5469 239.285 34.2969 237.089 34.2969C234.519 34.2969 233.011 35.9453 233.011 38.7109C233.011 41.5078 234.527 43.1719 237.097 43.1719C239.261 43.1719 240.605 41.9688 240.816 40.2031H238.972C238.769 41.1016 238.097 41.5781 237.089 41.5781C235.769 41.5781 234.972 40.5234 234.972 38.7109C234.972 36.9297 235.761 35.8828 237.089 35.8828C238.152 35.8828 238.792 36.4844 238.972 37.3125H240.816ZM242.932 33.0312C243.572 33.0312 244.096 32.5234 244.096 31.8828C244.096 31.25 243.572 30.7344 242.932 30.7344C242.299 30.7344 241.776 31.25 241.776 31.8828C241.776 32.5234 242.299 33.0312 242.932 33.0312ZM241.971 43H243.901V34.4609H241.971V43ZM245.392 36.8984C245.392 38.1797 246.165 38.9297 247.806 39.3047L249.321 39.6562C250.134 39.8438 250.501 40.1562 250.501 40.6406C250.501 41.2891 249.821 41.7344 248.845 41.7344C247.876 41.7344 247.274 41.3438 247.087 40.7109H245.173C245.321 42.25 246.665 43.1719 248.798 43.1719C250.931 43.1719 252.438 42.0859 252.438 40.4531C252.438 39.1953 251.681 38.5 250.048 38.125L248.54 37.7891C247.681 37.5859 247.274 37.2812 247.274 36.7969C247.274 36.1641 247.938 35.7344 248.821 35.7344C249.727 35.7344 250.298 36.125 250.438 36.7266H252.259C252.118 35.1875 250.845 34.2969 248.813 34.2969C246.798 34.2969 245.392 35.3672 245.392 36.8984ZM259.25 40.6641C258.968 41.3047 258.304 41.6641 257.343 41.6641C256.07 41.6641 255.25 40.7578 255.203 39.3125V39.2109H261.172V38.5938C261.172 35.9141 259.711 34.2969 257.273 34.2969C254.797 34.2969 253.257 36.0234 253.257 38.7656C253.257 41.5 254.773 43.1719 257.289 43.1719C259.304 43.1719 260.734 42.2031 261.086 40.6641H259.25ZM257.265 35.8047C258.429 35.8047 259.195 36.625 259.234 37.9219H255.211C255.297 36.6406 256.109 35.8047 257.265 35.8047ZM262.202 36.8984C262.202 38.1797 262.975 38.9297 264.616 39.3047L266.131 39.6562C266.944 39.8438 267.311 40.1562 267.311 40.6406C267.311 41.2891 266.631 41.7344 265.655 41.7344C264.686 41.7344 264.084 41.3438 263.897 40.7109H261.983C262.131 42.25 263.475 43.1719 265.608 43.1719C267.741 43.1719 269.248 42.0859 269.248 40.4531C269.248 39.1953 268.491 38.5 266.858 38.125L265.35 37.7891C264.491 37.5859 264.084 37.2812 264.084 36.7969C264.084 36.1641 264.748 35.7344 265.631 35.7344C266.538 35.7344 267.108 36.125 267.248 36.7266H269.069C268.928 35.1875 267.655 34.2969 265.623 34.2969C263.608 34.2969 262.202 35.3672 262.202 36.8984ZM116.523 68V63.5547L120.477 56.7266H118.266L115.586 61.5625H115.453L112.766 56.7266H110.555L114.508 63.5547V68H116.523ZM123.733 68.1719C126.288 68.1719 127.842 66.5 127.842 63.7266C127.842 60.9688 126.28 59.2969 123.733 59.2969C121.194 59.2969 119.624 60.9766 119.624 63.7266C119.624 66.5 121.171 68.1719 123.733 68.1719ZM123.733 66.5859C122.382 66.5859 121.608 65.5391 121.608 63.7344C121.608 61.9297 122.382 60.8828 123.733 60.8828C125.077 60.8828 125.85 61.9297 125.85 63.7344C125.85 65.5391 125.085 66.5859 123.733 66.5859ZM132.747 71.25C135.24 71.25 136.818 70.0078 136.818 68.0469V59.4609H134.951V60.8281H134.818C134.349 59.8984 133.333 59.3203 132.169 59.3203C129.99 59.3203 128.638 61.0234 128.638 63.6406C128.638 66.2031 129.982 67.875 132.138 67.875C133.326 67.875 134.255 67.375 134.747 66.4531H134.88V68.0781C134.88 69.1641 134.107 69.8047 132.779 69.8047C131.716 69.8047 131.029 69.4219 130.904 68.8203H128.958C129.115 70.2891 130.552 71.25 132.747 71.25ZM132.747 66.3359C131.396 66.3359 130.63 65.2891 130.63 63.6328C130.63 61.9844 131.396 60.9375 132.747 60.9375C134.091 60.9375 134.912 61.9844 134.912 63.6406C134.912 65.2891 134.099 66.3359 132.747 66.3359ZM140.832 68.1406C141.949 68.1406 142.887 67.6562 143.363 66.8281H143.496V68H145.363V62.1641C145.363 60.3594 144.129 59.2969 141.934 59.2969C139.903 59.2969 138.488 60.25 138.332 61.7422H140.16C140.34 61.1562 140.949 60.8359 141.84 60.8359C142.887 60.8359 143.449 61.3125 143.449 62.1641V62.8984L141.246 63.0312C139.168 63.1484 138.004 64.0469 138.004 65.5781C138.004 67.1406 139.184 68.1406 140.832 68.1406ZM141.403 66.6484C140.543 66.6484 139.926 66.2188 139.926 65.4844C139.926 64.7734 140.434 64.375 141.52 64.3047L143.449 64.1719V64.8672C143.449 65.8828 142.574 66.6484 141.403 66.6484ZM151.127 70.4141L155.173 56.1562H153.431L149.377 70.4141H151.127ZM171.085 68V56.7266H168.726L165.335 65.0938H165.194L161.804 56.7266H159.444V68H161.319V60.0078H161.429L164.546 67.6484H165.983L169.101 60.0078H169.21V68H171.085ZM175.295 68.1406C176.412 68.1406 177.349 67.6562 177.826 66.8281H177.959V68H179.826V62.1641C179.826 60.3594 178.592 59.2969 176.396 59.2969C174.365 59.2969 172.951 60.25 172.795 61.7422H174.623C174.802 61.1562 175.412 60.8359 176.302 60.8359C177.349 60.8359 177.912 61.3125 177.912 62.1641V62.8984L175.709 63.0312C173.631 63.1484 172.467 64.0469 172.467 65.5781C172.467 67.1406 173.646 68.1406 175.295 68.1406ZM175.865 66.6484C175.006 66.6484 174.388 66.2188 174.388 65.4844C174.388 64.7734 174.896 64.375 175.982 64.3047L177.912 64.1719V64.8672C177.912 65.8828 177.037 66.6484 175.865 66.6484ZM181.247 61.8984C181.247 63.1797 182.02 63.9297 183.661 64.3047L185.176 64.6562C185.989 64.8438 186.356 65.1562 186.356 65.6406C186.356 66.2891 185.676 66.7344 184.7 66.7344C183.731 66.7344 183.129 66.3438 182.942 65.7109H181.028C181.176 67.25 182.52 68.1719 184.653 68.1719C186.786 68.1719 188.293 67.0859 188.293 65.4531C188.293 64.1953 187.536 63.5 185.903 63.125L184.395 62.7891C183.536 62.5859 183.129 62.2812 183.129 61.7969C183.129 61.1641 183.793 60.7344 184.676 60.7344C185.582 60.7344 186.153 61.125 186.293 61.7266H188.114C187.973 60.1875 186.7 59.2969 184.668 59.2969C182.653 59.2969 181.247 60.3672 181.247 61.8984ZM189.183 61.8984C189.183 63.1797 189.956 63.9297 191.597 64.3047L193.113 64.6562C193.925 64.8438 194.292 65.1562 194.292 65.6406C194.292 66.2891 193.613 66.7344 192.636 66.7344C191.667 66.7344 191.066 66.3438 190.878 65.7109H188.964C189.113 67.25 190.456 68.1719 192.589 68.1719C194.722 68.1719 196.23 67.0859 196.23 65.4531C196.23 64.1953 195.472 63.5 193.839 63.125L192.331 62.7891C191.472 62.5859 191.066 62.2812 191.066 61.7969C191.066 61.1641 191.73 60.7344 192.613 60.7344C193.519 60.7344 194.089 61.125 194.23 61.7266H196.05C195.909 60.1875 194.636 59.2969 192.605 59.2969C190.589 59.2969 189.183 60.3672 189.183 61.8984ZM199.822 68.1406C200.939 68.1406 201.877 67.6562 202.353 66.8281H202.486V68H204.353V62.1641C204.353 60.3594 203.119 59.2969 200.924 59.2969C198.893 59.2969 197.478 60.25 197.322 61.7422H199.15C199.33 61.1562 199.939 60.8359 200.83 60.8359C201.877 60.8359 202.439 61.3125 202.439 62.1641V62.8984L200.236 63.0312C198.158 63.1484 196.994 64.0469 196.994 65.5781C196.994 67.1406 198.174 68.1406 199.822 68.1406ZM200.393 66.6484C199.533 66.6484 198.916 66.2188 198.916 65.4844C198.916 64.7734 199.424 64.375 200.51 64.3047L202.439 64.1719V64.8672C202.439 65.8828 201.564 66.6484 200.393 66.6484ZM209.641 71.25C212.133 71.25 213.712 70.0078 213.712 68.0469V59.4609H211.844V60.8281H211.712C211.243 59.8984 210.227 59.3203 209.063 59.3203C206.883 59.3203 205.532 61.0234 205.532 63.6406C205.532 66.2031 206.876 67.875 209.032 67.875C210.219 67.875 211.149 67.375 211.641 66.4531H211.774V68.0781C211.774 69.1641 211.001 69.8047 209.673 69.8047C208.61 69.8047 207.923 69.4219 207.798 68.8203H205.852C206.008 70.2891 207.446 71.25 209.641 71.25ZM209.641 66.3359C208.29 66.3359 207.524 65.2891 207.524 63.6328C207.524 61.9844 208.29 60.9375 209.641 60.9375C210.985 60.9375 211.805 61.9844 211.805 63.6406C211.805 65.2891 210.993 66.3359 209.641 66.3359ZM220.945 65.6641C220.663 66.3047 219.999 66.6641 219.038 66.6641C217.765 66.6641 216.945 65.7578 216.898 64.3125V64.2109H222.867V63.5938C222.867 60.9141 221.406 59.2969 218.968 59.2969C216.492 59.2969 214.952 61.0234 214.952 63.7656C214.952 66.5 216.468 68.1719 218.984 68.1719C220.999 68.1719 222.429 67.2031 222.781 65.6641H220.945ZM218.96 60.8047C220.124 60.8047 220.89 61.625 220.929 62.9219H216.906C216.992 61.6406 217.804 60.8047 218.96 60.8047ZM228.255 57.3672V59.5156H226.903V61.0234H228.255V65.7344C228.255 67.3828 229.036 68.0391 230.997 68.0391C231.372 68.0391 231.731 68.0078 232.012 67.9531V66.4688C231.778 66.4922 231.63 66.5078 231.356 66.5078C230.544 66.5078 230.184 66.125 230.184 65.2734V61.0234H232.012V59.5156H230.184V57.3672H228.255ZM233.308 68H235.246V63.0391C235.246 61.7891 235.957 60.9531 237.23 60.9531C238.355 60.9531 238.949 61.625 238.949 62.9453V68H240.886V62.4922C240.886 60.4609 239.777 59.3047 237.949 59.3047C236.675 59.3047 235.761 59.8828 235.355 60.8438H235.214V56.1562H233.308V68ZM248.033 65.6641C247.752 66.3047 247.088 66.6641 246.127 66.6641C244.854 66.6641 244.033 65.7578 243.987 64.3125V64.2109H249.955V63.5938C249.955 60.9141 248.494 59.2969 246.057 59.2969C243.58 59.2969 242.041 61.0234 242.041 63.7656C242.041 66.5 243.557 68.1719 246.072 68.1719C248.088 68.1719 249.518 67.2031 249.869 65.6641H248.033ZM246.049 60.8047C247.213 60.8047 247.979 61.625 248.018 62.9219H243.994C244.08 61.6406 244.893 60.8047 246.049 60.8047ZM251.181 68H253.118V63.0391C253.118 61.8359 253.993 61.0547 255.251 61.0547C255.579 61.0547 256.095 61.1094 256.243 61.1641V59.3984C256.063 59.3516 255.72 59.3203 255.438 59.3203C254.337 59.3203 253.415 59.9453 253.181 60.7891H253.048V59.4609H251.181V68ZM259.359 68.1406C260.476 68.1406 261.414 67.6562 261.89 66.8281H262.023V68H263.89V62.1641C263.89 60.3594 262.656 59.2969 260.461 59.2969C258.429 59.2969 257.015 60.25 256.859 61.7422H258.687C258.867 61.1562 259.476 60.8359 260.367 60.8359C261.414 60.8359 261.976 61.3125 261.976 62.1641V62.8984L259.773 63.0312C257.695 63.1484 256.531 64.0469 256.531 65.5781C256.531 67.1406 257.711 68.1406 259.359 68.1406ZM259.929 66.6484C259.07 66.6484 258.453 66.2188 258.453 65.4844C258.453 64.7734 258.961 64.375 260.047 64.3047L261.976 64.1719V64.8672C261.976 65.8828 261.101 66.6484 259.929 66.6484ZM270.163 59.3203C268.991 59.3203 267.998 59.9062 267.506 60.875H267.373V59.4609H265.506V70.8359H267.444V66.7031H267.577C268.014 67.6094 268.959 68.1406 270.186 68.1406C272.342 68.1406 273.686 66.4453 273.686 63.7344C273.686 61 272.327 59.3203 270.163 59.3203ZM269.553 66.5312C268.233 66.5312 267.413 65.4609 267.405 63.7344C267.413 62.0078 268.241 60.9375 269.561 60.9375C270.889 60.9375 271.694 61.9844 271.694 63.7344C271.694 65.4844 270.897 66.5312 269.553 66.5312ZM275.505 71.0938C277.419 71.0938 278.333 70.3984 279.06 68.2969L282.146 59.4609H280.099L278.107 66.1641H277.974L275.974 59.4609H273.849L276.903 68.0312L276.802 68.4297C276.552 69.2344 276.091 69.5469 275.271 69.5469C275.138 69.5469 274.849 69.5391 274.739 69.5234V71.0625C274.864 71.0859 275.388 71.0938 275.505 71.0938Z" fill="black"/>
<path d="M37.0413 18V6.72656H35.0256V18H37.0413ZM39.5166 7.36719V9.51562H38.165V11.0234H39.5166V15.7344C39.5166 17.3828 40.2978 18.0391 42.2588 18.0391C42.6338 18.0391 42.9931 18.0078 43.2744 17.9531V16.4688C43.04 16.4922 42.8916 16.5078 42.6181 16.5078C41.8056 16.5078 41.4463 16.125 41.4463 15.2734V11.0234H43.2744V9.51562H41.4463V7.36719H39.5166ZM45.8981 11.2656L47.3747 6.72656H45.3903L44.5309 11.2656H45.8981ZM47.7797 11.8984C47.7797 13.1797 48.5531 13.9297 50.1938 14.3047L51.7094 14.6562C52.5219 14.8438 52.8891 15.1562 52.8891 15.6406C52.8891 16.2891 52.2094 16.7344 51.2328 16.7344C50.2641 16.7344 49.6625 16.3438 49.475 15.7109H47.5609C47.7094 17.25 49.0531 18.1719 51.1859 18.1719C53.3188 18.1719 54.8266 17.0859 54.8266 15.4531C54.8266 14.1953 54.0688 13.5 52.4359 13.125L50.9281 12.7891C50.0688 12.5859 49.6625 12.2812 49.6625 11.7969C49.6625 11.1641 50.3266 10.7344 51.2094 10.7344C52.1156 10.7344 52.6859 11.125 52.8266 11.7266H54.6469C54.5063 10.1875 53.2328 9.29688 51.2016 9.29688C49.1859 9.29688 47.7797 10.3672 47.7797 11.8984ZM60.5506 21.0938C62.4647 21.0938 63.3788 20.3984 64.1053 18.2969L67.1913 9.46094H65.1444L63.1522 16.1641H63.0194L61.0194 9.46094H58.8944L61.9491 18.0312L61.8475 18.4297C61.5975 19.2344 61.1366 19.5469 60.3163 19.5469C60.1834 19.5469 59.8944 19.5391 59.785 19.5234V21.0625C59.91 21.0859 60.4334 21.0938 60.5506 21.0938ZM71.4869 18.1719C74.0416 18.1719 75.5963 16.5 75.5963 13.7266C75.5963 10.9688 74.0338 9.29688 71.4869 9.29688C68.9478 9.29688 67.3775 10.9766 67.3775 13.7266C67.3775 16.5 68.9244 18.1719 71.4869 18.1719ZM71.4869 16.5859C70.1353 16.5859 69.3619 15.5391 69.3619 13.7344C69.3619 11.9297 70.1353 10.8828 71.4869 10.8828C72.8306 10.8828 73.6041 11.9297 73.6041 13.7344C73.6041 15.5391 72.8384 16.5859 71.4869 16.5859ZM84.2669 9.46094H82.3294V14.4375C82.3294 15.7266 81.6419 16.5078 80.3841 16.5078C79.2278 16.5078 78.6888 15.8672 78.6888 14.5391V9.46094H76.7513V15.0078C76.7513 17.0078 77.845 18.1719 79.7122 18.1719C81.0169 18.1719 81.8528 17.6172 82.2669 16.6406H82.3997V18H84.2669V9.46094ZM87.1719 20.9766L88.5234 16.2812H86.5625L85.8359 20.9766H87.1719ZM46.0531 37H47.9906V32.0234C47.9906 30.7422 48.7172 29.9375 49.8734 29.9375C51.0531 29.9375 51.6 30.6016 51.6 31.9297V37H53.5375V31.4766C53.5375 29.4453 52.4984 28.2969 50.5922 28.2969C49.3187 28.2969 48.4594 28.875 48.0531 29.8281H47.9203V28.4609H46.0531V37ZM58.8019 37.1719C61.3566 37.1719 62.9112 35.5 62.9112 32.7266C62.9112 29.9688 61.3487 28.2969 58.8019 28.2969C56.2628 28.2969 54.6925 29.9766 54.6925 32.7266C54.6925 35.5 56.2394 37.1719 58.8019 37.1719ZM58.8019 35.5859C57.4503 35.5859 56.6769 34.5391 56.6769 32.7344C56.6769 30.9297 57.4503 29.8828 58.8019 29.8828C60.1456 29.8828 60.9191 30.9297 60.9191 32.7344C60.9191 34.5391 60.1534 35.5859 58.8019 35.5859ZM64.7616 26.3672V28.5156H63.41V30.0234H64.7616V34.7344C64.7616 36.3828 65.5428 37.0391 67.5037 37.0391C67.8787 37.0391 68.2381 37.0078 68.5194 36.9531V35.4688C68.285 35.4922 68.1366 35.5078 67.8631 35.5078C67.0506 35.5078 66.6912 35.125 66.6912 34.2734V30.0234H68.5194V28.5156H66.6912V26.3672H64.7616ZM80.72 28.4609H78.7825V33.4375C78.7825 34.7266 78.095 35.5078 76.8372 35.5078C75.6809 35.5078 75.1419 34.8672 75.1419 33.5391V28.4609H73.2044V34.0078C73.2044 36.0078 74.2981 37.1719 76.1653 37.1719C77.47 37.1719 78.3059 36.6172 78.72 35.6406H78.8528V37H80.72V28.4609ZM82.1797 30.8984C82.1797 32.1797 82.9531 32.9297 84.5938 33.3047L86.1094 33.6562C86.9219 33.8438 87.2891 34.1562 87.2891 34.6406C87.2891 35.2891 86.6094 35.7344 85.6328 35.7344C84.6641 35.7344 84.0625 35.3438 83.875 34.7109H81.9609C82.1094 36.25 83.4531 37.1719 85.5859 37.1719C87.7188 37.1719 89.2266 36.0859 89.2266 34.4531C89.2266 33.1953 88.4688 32.5 86.8359 32.125L85.3281 31.7891C84.4688 31.5859 84.0625 31.2812 84.0625 30.7969C84.0625 30.1641 84.7266 29.7344 85.6094 29.7344C86.5156 29.7344 87.0859 30.125 87.2266 30.7266H89.0469C88.9062 29.1875 87.6328 28.2969 85.6016 28.2969C83.5859 28.2969 82.1797 29.3672 82.1797 30.8984Z" fill="#2C88DD"/>
<path d="M11.0347 115.969C11.0347 117.977 12.4878 119.281 14.6441 119.281C16.9097 119.281 18.2769 117.961 18.2769 115.656V107.727H16.2613V115.641C16.2613 116.867 15.6753 117.516 14.6206 117.516C13.6597 117.516 13.0191 116.898 13.0034 115.969H11.0347ZM27.5725 110.461H25.635V115.438C25.635 116.727 24.9475 117.508 23.6897 117.508C22.5334 117.508 21.9944 116.867 21.9944 115.539V110.461H20.0569V116.008C20.0569 118.008 21.1506 119.172 23.0178 119.172C24.3225 119.172 25.1584 118.617 25.5725 117.641H25.7053V119H27.5725V110.461ZM29.0322 112.898C29.0322 114.18 29.8056 114.93 31.4463 115.305L32.9619 115.656C33.7744 115.844 34.1416 116.156 34.1416 116.641C34.1416 117.289 33.4619 117.734 32.4853 117.734C31.5166 117.734 30.915 117.344 30.7275 116.711H28.8134C28.9619 118.25 30.3056 119.172 32.4384 119.172C34.5713 119.172 36.0791 118.086 36.0791 116.453C36.0791 115.195 35.3213 114.5 33.6884 114.125L32.1806 113.789C31.3213 113.586 30.915 113.281 30.915 112.797C30.915 112.164 31.5791 111.734 32.4619 111.734C33.3681 111.734 33.9384 112.125 34.0791 112.727H35.8994C35.7588 111.188 34.4853 110.297 32.4541 110.297C30.4384 110.297 29.0322 111.367 29.0322 112.898ZM37.8747 108.367V110.516H36.5231V112.023H37.8747V116.734C37.8747 118.383 38.6559 119.039 40.6169 119.039C40.9919 119.039 41.3513 119.008 41.6325 118.953V117.469C41.3981 117.492 41.2497 117.508 40.9763 117.508C40.1638 117.508 39.8044 117.125 39.8044 116.273V112.023H41.6325V110.516H39.8044V108.367H37.8747ZM46.3956 119H48.3331V114.023C48.3331 112.742 49.0597 111.938 50.2159 111.938C51.3956 111.938 51.9425 112.602 51.9425 113.93V119H53.88V113.477C53.88 111.445 52.8409 110.297 50.9347 110.297C49.6613 110.297 48.8019 110.875 48.3956 111.828H48.2628V110.461H46.3956V119ZM61.0272 116.664C60.7459 117.305 60.0819 117.664 59.1209 117.664C57.8475 117.664 57.0272 116.758 56.9803 115.312V115.211H62.9491V114.594C62.9491 111.914 61.4881 110.297 59.0506 110.297C56.5741 110.297 55.035 112.023 55.035 114.766C55.035 117.5 56.5506 119.172 59.0663 119.172C61.0819 119.172 62.5116 118.203 62.8631 116.664H61.0272ZM59.0428 111.805C60.2069 111.805 60.9725 112.625 61.0116 113.922H56.9881C57.0741 112.641 57.8866 111.805 59.0428 111.805ZM69.7447 116.664C69.4634 117.305 68.7994 117.664 67.8384 117.664C66.565 117.664 65.7447 116.758 65.6978 115.312V115.211H71.6666V114.594C71.6666 111.914 70.2056 110.297 67.7681 110.297C65.2916 110.297 63.7525 112.023 63.7525 114.766C63.7525 117.5 65.2681 119.172 67.7838 119.172C69.7994 119.172 71.2291 118.203 71.5806 116.664H69.7447ZM67.7603 111.805C68.9244 111.805 69.69 112.625 69.7291 113.922H65.7056C65.7916 112.641 66.6041 111.805 67.7603 111.805ZM75.9856 119.141C77.1731 119.141 78.1575 118.586 78.6419 117.648H78.7747V119H80.6497V107.156H78.7122V111.82H78.5794C78.1263 110.883 77.1575 110.32 75.9856 110.32C73.8294 110.32 72.47 112.023 72.47 114.727C72.47 117.438 73.8216 119.141 75.9856 119.141ZM76.5872 111.938C77.9153 111.938 78.7356 113.008 78.7356 114.734C78.7356 116.469 77.9231 117.531 76.5872 117.531C75.2591 117.531 74.4544 116.484 74.4544 114.734C74.4544 112.992 75.2669 111.938 76.5872 111.938ZM82.1797 112.898C82.1797 114.18 82.9531 114.93 84.5938 115.305L86.1094 115.656C86.9219 115.844 87.2891 116.156 87.2891 116.641C87.2891 117.289 86.6094 117.734 85.6328 117.734C84.6641 117.734 84.0625 117.344 83.875 116.711H81.9609C82.1094 118.25 83.4531 119.172 85.5859 119.172C87.7188 119.172 89.2266 118.086 89.2266 116.453C89.2266 115.195 88.4688 114.5 86.8359 114.125L85.3281 113.789C84.4688 113.586 84.0625 113.281 84.0625 112.797C84.0625 112.164 84.7266 111.734 85.6094 111.734C86.5156 111.734 87.0859 112.125 87.2266 112.727H89.0469C88.9062 111.188 87.6328 110.297 85.6016 110.297C83.5859 110.297 82.1797 111.367 82.1797 112.898ZM16.1428 131.898C16.1428 133.18 16.9163 133.93 18.5569 134.305L20.0725 134.656C20.885 134.844 21.2522 135.156 21.2522 135.641C21.2522 136.289 20.5725 136.734 19.5959 136.734C18.6272 136.734 18.0256 136.344 17.8381 135.711H15.9241C16.0725 137.25 17.4163 138.172 19.5491 138.172C21.6819 138.172 23.1897 137.086 23.1897 135.453C23.1897 134.195 22.4319 133.5 20.7991 133.125L19.2913 132.789C18.4319 132.586 18.0256 132.281 18.0256 131.797C18.0256 131.164 18.6897 130.734 19.5725 130.734C20.4788 130.734 21.0491 131.125 21.1897 131.727H23.01C22.8694 130.188 21.5959 129.297 19.5647 129.297C17.5491 129.297 16.1428 130.367 16.1428 131.898ZM28.1181 138.172C30.6728 138.172 32.2275 136.5 32.2275 133.727C32.2275 130.969 30.665 129.297 28.1181 129.297C25.5791 129.297 24.0088 130.977 24.0088 133.727C24.0088 136.5 25.5556 138.172 28.1181 138.172ZM28.1181 136.586C26.7666 136.586 25.9931 135.539 25.9931 133.734C25.9931 131.93 26.7666 130.883 28.1181 130.883C29.4619 130.883 30.2353 131.93 30.2353 133.734C30.2353 135.539 29.4697 136.586 28.1181 136.586ZM33.4606 138H35.3981V132.805C35.3981 131.742 36.1091 130.938 37.07 130.938C38.0231 130.938 38.6169 131.516 38.6169 132.461V138H40.4997V132.664C40.4997 131.688 41.1638 130.938 42.1716 130.938C43.2106 130.938 43.7341 131.492 43.7341 132.602V138H45.6638V132.125C45.6638 130.352 44.6325 129.297 42.9216 129.297C41.7341 129.297 40.7497 129.906 40.3278 130.836H40.195C39.8356 129.891 39.0153 129.297 37.8356 129.297C36.7028 129.297 35.8278 129.875 35.4606 130.836H35.3278V129.461H33.4606V138ZM52.8109 135.664C52.5297 136.305 51.8656 136.664 50.9047 136.664C49.6313 136.664 48.8109 135.758 48.7641 134.312V134.211H54.7328V133.594C54.7328 130.914 53.2719 129.297 50.8344 129.297C48.3578 129.297 46.8188 131.023 46.8188 133.766C46.8188 136.5 48.3344 138.172 50.85 138.172C52.8656 138.172 54.2953 137.203 54.6469 135.664H52.8109ZM50.8266 130.805C51.9906 130.805 52.7563 131.625 52.7953 132.922H48.7719C48.8578 131.641 49.6703 130.805 50.8266 130.805ZM63.1756 141.25C65.6678 141.25 67.2459 140.008 67.2459 138.047V129.461H65.3788V130.828H65.2459C64.7772 129.898 63.7616 129.32 62.5975 129.32C60.4178 129.32 59.0663 131.023 59.0663 133.641C59.0663 136.203 60.41 137.875 62.5663 137.875C63.7538 137.875 64.6834 137.375 65.1756 136.453H65.3084V138.078C65.3084 139.164 64.535 139.805 63.2069 139.805C62.1444 139.805 61.4569 139.422 61.3319 138.82H59.3866C59.5428 140.289 60.9803 141.25 63.1756 141.25ZM63.1756 136.336C61.8241 136.336 61.0584 135.289 61.0584 133.633C61.0584 131.984 61.8241 130.938 63.1756 130.938C64.5194 130.938 65.3397 131.984 65.3397 133.641C65.3397 135.289 64.5272 136.336 63.1756 136.336ZM68.9869 138H70.9244V126.156H68.9869V138ZM80.095 129.461H78.1575V134.438C78.1575 135.727 77.47 136.508 76.2122 136.508C75.0559 136.508 74.5169 135.867 74.5169 134.539V129.461H72.5794V135.008C72.5794 137.008 73.6731 138.172 75.5403 138.172C76.845 138.172 77.6809 137.617 78.095 136.641H78.2278V138H80.095V129.461ZM87.3203 135.664C87.0391 136.305 86.375 136.664 85.4141 136.664C84.1406 136.664 83.3203 135.758 83.2734 134.312V134.211H89.2422V133.594C89.2422 130.914 87.7812 129.297 85.3438 129.297C82.8672 129.297 81.3281 131.023 81.3281 133.766C81.3281 136.5 82.8438 138.172 85.3594 138.172C87.375 138.172 88.8047 137.203 89.1562 135.664H87.3203ZM85.3359 130.805C86.5 130.805 87.2656 131.625 87.3047 132.922H83.2812C83.3672 131.641 84.1797 130.805 85.3359 130.805Z" fill="#2C88DD"/>
<path d="M113.406 119V107.727H111.391V119H113.406ZM115.264 119H117.202V114.023C117.202 112.742 117.928 111.938 119.085 111.938C120.264 111.938 120.811 112.602 120.811 113.93V119H122.749V113.477C122.749 111.445 121.71 110.297 119.803 110.297C118.53 110.297 117.671 110.875 117.264 111.828H117.132V110.461H115.264V119ZM132.895 119C135.301 119 136.77 117.781 136.77 115.797C136.77 114.328 135.723 113.234 134.207 113.094V112.953C135.34 112.773 136.215 111.727 136.215 110.539C136.215 108.805 134.926 107.727 132.785 107.727H128.074V119H132.895ZM130.09 109.297H132.293C133.512 109.297 134.223 109.883 134.223 110.891C134.223 111.922 133.465 112.477 132.035 112.477H130.09V109.297ZM130.09 117.43V113.906H132.356C133.895 113.906 134.707 114.508 134.707 115.656C134.707 116.812 133.918 117.43 132.434 117.43H130.09ZM140.393 119.141C141.511 119.141 142.448 118.656 142.925 117.828H143.057V119H144.925V113.164C144.925 111.359 143.69 110.297 141.495 110.297C139.464 110.297 138.05 111.25 137.893 112.742H139.722C139.901 112.156 140.511 111.836 141.401 111.836C142.448 111.836 143.011 112.312 143.011 113.164V113.898L140.807 114.031C138.729 114.148 137.565 115.047 137.565 116.578C137.565 118.141 138.745 119.141 140.393 119.141ZM140.964 117.648C140.104 117.648 139.487 117.219 139.487 116.484C139.487 115.773 139.995 115.375 141.081 115.305L143.011 115.172V115.867C143.011 116.883 142.136 117.648 140.964 117.648ZM146.345 112.898C146.345 114.18 147.119 114.93 148.759 115.305L150.275 115.656C151.088 115.844 151.455 116.156 151.455 116.641C151.455 117.289 150.775 117.734 149.798 117.734C148.83 117.734 148.228 117.344 148.041 116.711H146.127C146.275 118.25 147.619 119.172 149.752 119.172C151.884 119.172 153.392 118.086 153.392 116.453C153.392 115.195 152.634 114.5 151.002 114.125L149.494 113.789C148.634 113.586 148.228 113.281 148.228 112.797C148.228 112.164 148.892 111.734 149.775 111.734C150.681 111.734 151.252 112.125 151.392 112.727H153.213C153.072 111.188 151.798 110.297 149.767 110.297C147.752 110.297 146.345 111.367 146.345 112.898ZM156.782 113.961H156.649V107.156H154.711V119H156.649V116L157.336 115.312L160.078 119H162.422L158.782 114.125L162.188 110.461H159.938L156.782 113.961ZM168.296 116.664C168.015 117.305 167.351 117.664 166.39 117.664C165.116 117.664 164.296 116.758 164.249 115.312V115.211H170.218V114.594C170.218 111.914 168.757 110.297 166.319 110.297C163.843 110.297 162.304 112.023 162.304 114.766C162.304 117.5 163.819 119.172 166.335 119.172C168.351 119.172 169.78 118.203 170.132 116.664H168.296ZM166.312 111.805C167.476 111.805 168.241 112.625 168.28 113.922H164.257C164.343 112.641 165.155 111.805 166.312 111.805ZM172.06 108.367V110.516H170.709V112.023H172.06V116.734C172.06 118.383 172.842 119.039 174.802 119.039C175.177 119.039 175.537 119.008 175.818 118.953V117.469C175.584 117.492 175.435 117.508 175.162 117.508C174.349 117.508 173.99 117.125 173.99 116.273V112.023H175.818V110.516H173.99V108.367H172.06ZM188.081 117.305H182.8V114.078H187.792V112.477H182.8V109.422H188.081V107.727H180.784V119H188.081V117.305ZM190.275 108.367V110.516H188.924V112.023H190.275V116.734C190.275 118.383 191.057 119.039 193.018 119.039C193.393 119.039 193.752 119.008 194.033 118.953V117.469C193.799 117.492 193.65 117.508 193.377 117.508C192.564 117.508 192.205 117.125 192.205 116.273V112.023H194.033V110.516H192.205V108.367H190.275ZM195.915 108.367V110.516H194.563V112.023H195.915V116.734C195.915 118.383 196.696 119.039 198.657 119.039C199.032 119.039 199.391 119.008 199.673 118.953V117.469C199.438 117.492 199.29 117.508 199.016 117.508C198.204 117.508 197.844 117.125 197.844 116.273V112.023H199.673V110.516H197.844V108.367H195.915ZM201.874 109.031C202.515 109.031 203.038 108.523 203.038 107.883C203.038 107.25 202.515 106.734 201.874 106.734C201.242 106.734 200.718 107.25 200.718 107.883C200.718 108.523 201.242 109.031 201.874 109.031ZM200.913 119H202.843V110.461H200.913V119ZM207.631 110.32C205.475 110.32 204.107 112.031 204.107 114.727C204.107 117.438 205.443 119.141 207.6 119.141C208.811 119.141 209.709 118.625 210.201 117.703H210.334V121.836H212.287V110.461H210.404V111.875H210.272C209.803 110.93 208.787 110.32 207.631 110.32ZM208.209 117.531C206.881 117.531 206.092 116.484 206.092 114.734C206.092 112.984 206.889 111.938 208.217 111.938C209.537 111.938 210.373 113.008 210.373 114.734C210.373 116.469 209.545 117.531 208.209 117.531ZM221.372 110.461H219.434V115.438C219.434 116.727 218.747 117.508 217.489 117.508C216.333 117.508 215.794 116.867 215.794 115.539V110.461H213.856V116.008C213.856 118.008 214.95 119.172 216.817 119.172C218.122 119.172 218.958 118.617 219.372 117.641H219.505V119H221.372V110.461ZM228.597 116.664C228.316 117.305 227.652 117.664 226.691 117.664C225.417 117.664 224.597 116.758 224.55 115.312V115.211H230.519V114.594C230.519 111.914 229.058 110.297 226.621 110.297C224.144 110.297 222.605 112.023 222.605 114.766C222.605 117.5 224.121 119.172 226.636 119.172C228.652 119.172 230.082 118.203 230.433 116.664H228.597ZM226.613 111.805C227.777 111.805 228.542 112.625 228.582 113.922H224.558C224.644 112.641 225.457 111.805 226.613 111.805ZM232.362 108.367V110.516H231.01V112.023H232.362V116.734C232.362 118.383 233.143 119.039 235.104 119.039C235.479 119.039 235.838 119.008 236.119 118.953V117.469C235.885 117.492 235.737 117.508 235.463 117.508C234.651 117.508 234.291 117.125 234.291 116.273V112.023H236.119V110.516H234.291V108.367H232.362ZM238.001 108.367V110.516H236.649V112.023H238.001V116.734C238.001 118.383 238.782 119.039 240.743 119.039C241.118 119.039 241.478 119.008 241.759 118.953V117.469C241.524 117.492 241.376 117.508 241.103 117.508C240.29 117.508 239.931 117.125 239.931 116.273V112.023H241.759V110.516H239.931V108.367H238.001ZM248.468 116.664C248.187 117.305 247.523 117.664 246.562 117.664C245.289 117.664 244.468 116.758 244.422 115.312V115.211H250.39V114.594C250.39 111.914 248.929 110.297 246.492 110.297C244.015 110.297 242.476 112.023 242.476 114.766C242.476 117.5 243.992 119.172 246.507 119.172C248.523 119.172 249.953 118.203 250.304 116.664H248.468ZM246.484 111.805C247.648 111.805 248.414 112.625 248.453 113.922H244.429C244.515 112.641 245.328 111.805 246.484 111.805ZM113.406 144V132.727H111.391V144H113.406ZM115.264 144H117.202V139.023C117.202 137.742 117.928 136.938 119.085 136.938C120.264 136.938 120.811 137.602 120.811 138.93V144H122.749V138.477C122.749 136.445 121.71 135.297 119.803 135.297C118.53 135.297 117.671 135.875 117.264 136.828H117.132V135.461H115.264V144ZM129.076 144.141C131.232 144.141 132.583 142.445 132.583 139.734C132.583 137.008 131.24 135.32 129.076 135.32C127.904 135.32 126.919 135.891 126.474 136.82H126.341V132.156H124.404V144H126.271V142.648H126.404C126.888 143.586 127.88 144.141 129.076 144.141ZM128.466 136.938C129.787 136.938 130.591 137.992 130.591 139.734C130.591 141.477 129.794 142.531 128.466 142.531C127.138 142.531 126.31 141.461 126.31 139.734C126.31 138.008 127.146 136.938 128.466 136.938ZM137.496 144.172C140.051 144.172 141.606 142.5 141.606 139.727C141.606 136.969 140.043 135.297 137.496 135.297C134.957 135.297 133.387 136.977 133.387 139.727C133.387 142.5 134.934 144.172 137.496 144.172ZM137.496 142.586C136.145 142.586 135.371 141.539 135.371 139.734C135.371 137.93 136.145 136.883 137.496 136.883C138.84 136.883 139.613 137.93 139.613 139.734C139.613 141.539 138.848 142.586 137.496 142.586ZM145.722 141.047L147.472 144.016H149.659L146.87 139.695L149.628 135.477H147.495L145.807 138.438H145.675L143.979 135.477H141.729L144.518 139.781L141.753 144.016H143.847L145.589 141.047H145.722ZM153.9 144.172C156.455 144.172 158.009 142.5 158.009 139.727C158.009 136.969 156.447 135.297 153.9 135.297C151.361 135.297 149.791 136.977 149.791 139.727C149.791 142.5 151.338 144.172 153.9 144.172ZM153.9 142.586C152.548 142.586 151.775 141.539 151.775 139.734C151.775 137.93 152.548 136.883 153.9 136.883C155.244 136.883 156.017 137.93 156.017 139.734C156.017 141.539 155.252 142.586 153.9 142.586ZM159.321 144H161.258V132.156H159.321V144ZM166.679 144.172C169.233 144.172 170.788 142.5 170.788 139.727C170.788 136.969 169.226 135.297 166.679 135.297C164.14 135.297 162.569 136.977 162.569 139.727C162.569 142.5 164.116 144.172 166.679 144.172ZM166.679 142.586C165.327 142.586 164.554 141.539 164.554 139.734C164.554 137.93 165.327 136.883 166.679 136.883C168.022 136.883 168.796 137.93 168.796 139.734C168.796 141.539 168.03 142.586 166.679 142.586ZM175.693 147.25C178.185 147.25 179.763 146.008 179.763 144.047V135.461H177.896V136.828H177.763C177.295 135.898 176.279 135.32 175.115 135.32C172.935 135.32 171.584 137.023 171.584 139.641C171.584 142.203 172.927 143.875 175.084 143.875C176.271 143.875 177.201 143.375 177.693 142.453H177.826V144.078C177.826 145.164 177.052 145.805 175.724 145.805C174.662 145.805 173.974 145.422 173.849 144.82H171.904C172.06 146.289 173.498 147.25 175.693 147.25ZM175.693 142.336C174.342 142.336 173.576 141.289 173.576 139.633C173.576 137.984 174.342 136.938 175.693 136.938C177.037 136.938 177.857 137.984 177.857 139.641C177.857 141.289 177.045 142.336 175.693 142.336ZM182.411 134.031C183.051 134.031 183.575 133.523 183.575 132.883C183.575 132.25 183.051 131.734 182.411 131.734C181.778 131.734 181.254 132.25 181.254 132.883C181.254 133.523 181.778 134.031 182.411 134.031ZM181.45 144H183.379V135.461H181.45V144ZM184.87 137.898C184.87 139.18 185.644 139.93 187.284 140.305L188.8 140.656C189.613 140.844 189.98 141.156 189.98 141.641C189.98 142.289 189.3 142.734 188.323 142.734C187.355 142.734 186.753 142.344 186.566 141.711H184.652C184.8 143.25 186.144 144.172 188.277 144.172C190.409 144.172 191.917 143.086 191.917 141.453C191.917 140.195 191.159 139.5 189.527 139.125L188.019 138.789C187.159 138.586 186.753 138.281 186.753 137.797C186.753 137.164 187.417 136.734 188.3 136.734C189.206 136.734 189.777 137.125 189.917 137.727H191.738C191.597 136.188 190.323 135.297 188.292 135.297C186.277 135.297 184.87 136.367 184.87 137.898ZM193.713 133.367V135.516H192.361V137.023H193.713V141.734C193.713 143.383 194.494 144.039 196.455 144.039C196.83 144.039 197.189 144.008 197.471 143.953V142.469C197.236 142.492 197.088 142.508 196.814 142.508C196.002 142.508 195.643 142.125 195.643 141.273V137.023H197.471V135.516H195.643V133.367H193.713ZM116.258 169.281C116.977 169.281 117.648 169.172 118.25 168.961L119.156 170.172H121.125L119.648 168.172C120.883 167.219 121.578 165.523 121.578 163.367C121.578 159.719 119.516 157.445 116.258 157.445C112.984 157.445 110.914 159.711 110.914 163.367C110.914 167.031 112.961 169.281 116.258 169.281ZM116.258 167.586C114.227 167.586 112.938 165.969 112.938 163.367C112.938 160.773 114.234 159.141 116.258 159.141C118.266 159.141 119.555 160.773 119.555 163.367C119.555 164.797 119.164 165.938 118.477 166.594L117.625 165.469H115.648L117.141 167.469C116.859 167.555 116.562 167.586 116.258 167.586ZM130.405 160.461H128.467V165.438C128.467 166.727 127.78 167.508 126.522 167.508C125.366 167.508 124.827 166.867 124.827 165.539V160.461H122.889V166.008C122.889 168.008 123.983 169.172 125.85 169.172C127.155 169.172 127.991 168.617 128.405 167.641H128.538V169H130.405V160.461ZM134.412 169.141C135.529 169.141 136.466 168.656 136.943 167.828H137.076V169H138.943V163.164C138.943 161.359 137.708 160.297 135.513 160.297C133.482 160.297 132.068 161.25 131.912 162.742H133.74C133.919 162.156 134.529 161.836 135.419 161.836C136.466 161.836 137.029 162.312 137.029 163.164V163.898L134.826 164.031C132.747 164.148 131.583 165.047 131.583 166.578C131.583 168.141 132.763 169.141 134.412 169.141ZM134.982 167.648C134.122 167.648 133.505 167.219 133.505 166.484C133.505 165.773 134.013 165.375 135.099 165.305L137.029 165.172V165.867C137.029 166.883 136.154 167.648 134.982 167.648ZM140.559 169H142.496V164.039C142.496 162.836 143.371 162.055 144.629 162.055C144.957 162.055 145.473 162.109 145.621 162.164V160.398C145.442 160.352 145.098 160.32 144.817 160.32C143.715 160.32 142.793 160.945 142.559 161.789H142.426V160.461H140.559V169ZM147.503 158.367V160.516H146.151V162.023H147.503V166.734C147.503 168.383 148.284 169.039 150.245 169.039C150.62 169.039 150.979 169.008 151.261 168.953V167.469C151.026 167.492 150.878 167.508 150.604 167.508C149.792 167.508 149.432 167.125 149.432 166.273V162.023H151.261V160.516H149.432V158.367H147.503ZM157.97 166.664C157.689 167.305 157.025 167.664 156.064 167.664C154.791 167.664 153.97 166.758 153.923 165.312V165.211H159.892V164.594C159.892 161.914 158.431 160.297 155.994 160.297C153.517 160.297 151.978 162.023 151.978 164.766C151.978 167.5 153.494 169.172 156.009 169.172C158.025 169.172 159.455 168.203 159.806 166.664H157.97ZM155.986 161.805C157.15 161.805 157.916 162.625 157.955 163.922H153.931C154.017 162.641 154.83 161.805 155.986 161.805ZM161.118 169H163.055V164.039C163.055 162.836 163.93 162.055 165.188 162.055C165.516 162.055 166.032 162.109 166.18 162.164V160.398C166 160.352 165.657 160.32 165.375 160.32C164.274 160.32 163.352 160.945 163.118 161.789H162.985V160.461H161.118V169ZM171.804 169.141C173.96 169.141 175.312 167.445 175.312 164.734C175.312 162.008 173.968 160.32 171.804 160.32C170.632 160.32 169.647 160.891 169.202 161.82H169.069V157.156H167.132V169H168.999V167.648H169.132C169.616 168.586 170.608 169.141 171.804 169.141ZM171.194 161.938C172.515 161.938 173.319 162.992 173.319 164.734C173.319 166.477 172.522 167.531 171.194 167.531C169.866 167.531 169.038 166.461 169.038 164.734C169.038 163.008 169.874 161.938 171.194 161.938ZM178.888 169.141C180.006 169.141 180.943 168.656 181.42 167.828H181.552V169H183.42V163.164C183.42 161.359 182.185 160.297 179.99 160.297C177.959 160.297 176.545 161.25 176.388 162.742H178.217C178.396 162.156 179.006 161.836 179.896 161.836C180.943 161.836 181.506 162.312 181.506 163.164V163.898L179.302 164.031C177.224 164.148 176.06 165.047 176.06 166.578C176.06 168.141 177.24 169.141 178.888 169.141ZM179.459 167.648C178.599 167.648 177.982 167.219 177.982 166.484C177.982 165.773 178.49 165.375 179.576 165.305L181.506 165.172V165.867C181.506 166.883 180.631 167.648 179.459 167.648ZM192.418 163.312C192.215 161.547 190.887 160.297 188.692 160.297C186.122 160.297 184.614 161.945 184.614 164.711C184.614 167.508 186.129 169.172 188.7 169.172C190.864 169.172 192.207 167.969 192.418 166.203H190.575C190.372 167.102 189.7 167.578 188.692 167.578C187.372 167.578 186.575 166.523 186.575 164.711C186.575 162.93 187.364 161.883 188.692 161.883C189.754 161.883 190.395 162.484 190.575 163.312H192.418ZM195.698 163.961H195.566V157.156H193.628V169H195.566V166L196.253 165.312L198.995 169H201.339L197.698 164.125L201.105 160.461H198.855L195.698 163.961ZM203.096 159.031C203.736 159.031 204.26 158.523 204.26 157.883C204.26 157.25 203.736 156.734 203.096 156.734C202.463 156.734 201.939 157.25 201.939 157.883C201.939 158.523 202.463 159.031 203.096 159.031ZM202.135 169H204.064V160.461H202.135V169ZM205.751 169H207.688V164.023C207.688 162.742 208.415 161.938 209.571 161.938C210.751 161.938 211.298 162.602 211.298 163.93V169H213.235V163.477C213.235 161.445 212.196 160.297 210.29 160.297C209.016 160.297 208.157 160.875 207.751 161.828H207.618V160.461H205.751V169ZM218.484 172.25C220.976 172.25 222.554 171.008 222.554 169.047V160.461H220.687V161.828H220.554C220.085 160.898 219.07 160.32 217.906 160.32C215.726 160.32 214.374 162.023 214.374 164.641C214.374 167.203 215.718 168.875 217.874 168.875C219.062 168.875 219.992 168.375 220.484 167.453H220.617V169.078C220.617 170.164 219.843 170.805 218.515 170.805C217.452 170.805 216.765 170.422 216.64 169.82H214.695C214.851 171.289 216.288 172.25 218.484 172.25ZM218.484 167.336C217.132 167.336 216.367 166.289 216.367 164.633C216.367 162.984 217.132 161.938 218.484 161.938C219.827 161.938 220.648 162.984 220.648 164.641C220.648 166.289 219.835 167.336 218.484 167.336Z" fill="black"/>
<path d="M6.875 190.945C6.97656 192.984 8.6875 194.281 11.2734 194.281C14.0078 194.281 15.7031 192.922 15.7031 190.734C15.7031 189.023 14.7422 188.07 12.4531 187.547L11.1562 187.25C9.75781 186.922 9.1875 186.477 9.1875 185.703C9.1875 184.727 10.0469 184.086 11.3438 184.086C12.5781 184.086 13.4531 184.719 13.5938 185.727H15.5234C15.4297 183.797 13.7188 182.445 11.3516 182.445C8.82812 182.445 7.15625 183.805 7.15625 185.836C7.15625 187.508 8.11719 188.516 10.1641 188.984L11.625 189.32C13.0703 189.656 13.6875 190.156 13.6875 190.977C13.6875 191.938 12.7266 192.633 11.3984 192.633C9.96875 192.633 8.96875 191.977 8.84375 190.945H6.875ZM28.4909 185.461H26.5612L25.1472 191.875H25.0144L23.3581 185.461H21.5066L19.8659 191.875H19.7331L18.3112 185.461H16.3581L18.6706 194H20.6862L22.3425 187.812H22.4753L24.1394 194H26.1784L28.4909 185.461ZM34.6928 191.664C34.4116 192.305 33.7475 192.664 32.7866 192.664C31.5131 192.664 30.6928 191.758 30.6459 190.312V190.211H36.6147V189.594C36.6147 186.914 35.1537 185.297 32.7162 185.297C30.2397 185.297 28.7006 187.023 28.7006 189.766C28.7006 192.5 30.2162 194.172 32.7319 194.172C34.7475 194.172 36.1772 193.203 36.5287 191.664H34.6928ZM32.7084 186.805C33.8725 186.805 34.6381 187.625 34.6772 188.922H30.6537C30.7397 187.641 31.5522 186.805 32.7084 186.805ZM43.4103 191.664C43.1291 192.305 42.465 192.664 41.5041 192.664C40.2306 192.664 39.4103 191.758 39.3634 190.312V190.211H45.3322V189.594C45.3322 186.914 43.8713 185.297 41.4338 185.297C38.9572 185.297 37.4181 187.023 37.4181 189.766C37.4181 192.5 38.9338 194.172 41.4494 194.172C43.465 194.172 44.8947 193.203 45.2463 191.664H43.4103ZM41.4259 186.805C42.59 186.805 43.3556 187.625 43.3947 188.922H39.3713C39.4572 187.641 40.2697 186.805 41.4259 186.805ZM47.1747 183.367V185.516H45.8231V187.023H47.1747V191.734C47.1747 193.383 47.9559 194.039 49.9169 194.039C50.2919 194.039 50.6512 194.008 50.9325 193.953V192.469C50.6981 192.492 50.5497 192.508 50.2762 192.508C49.4637 192.508 49.1044 192.125 49.1044 191.273V187.023H50.9325V185.516H49.1044V183.367H47.1747ZM55.3831 190.945C55.4847 192.984 57.1956 194.281 59.7816 194.281C62.5159 194.281 64.2113 192.922 64.2113 190.734C64.2113 189.023 63.2503 188.07 60.9613 187.547L59.6644 187.25C58.2659 186.922 57.6956 186.477 57.6956 185.703C57.6956 184.727 58.555 184.086 59.8519 184.086C61.0863 184.086 61.9613 184.719 62.1019 185.727H64.0316C63.9378 183.797 62.2269 182.445 59.8597 182.445C57.3363 182.445 55.6644 183.805 55.6644 185.836C55.6644 187.508 56.6253 188.516 58.6722 188.984L60.1331 189.32C61.5784 189.656 62.1956 190.156 62.1956 190.977C62.1956 191.938 61.2347 192.633 59.9066 192.633C58.4769 192.633 57.4769 191.977 57.3519 190.945H55.3831ZM70.21 185.32C69.0381 185.32 68.0459 185.906 67.5537 186.875H67.4209V185.461H65.5537V196.836H67.4912V192.703H67.6241C68.0616 193.609 69.0069 194.141 70.2334 194.141C72.3897 194.141 73.7334 192.445 73.7334 189.734C73.7334 187 72.3741 185.32 70.21 185.32ZM69.6006 192.531C68.2803 192.531 67.46 191.461 67.4522 189.734C67.46 188.008 68.2881 186.938 69.6084 186.938C70.9366 186.938 71.7412 187.984 71.7412 189.734C71.7412 191.484 70.9444 192.531 69.6006 192.531ZM78.6462 194.172C81.2009 194.172 82.7556 192.5 82.7556 189.727C82.7556 186.969 81.1931 185.297 78.6462 185.297C76.1072 185.297 74.5369 186.977 74.5369 189.727C74.5369 192.5 76.0837 194.172 78.6462 194.172ZM78.6462 192.586C77.2947 192.586 76.5212 191.539 76.5212 189.734C76.5212 187.93 77.2947 186.883 78.6462 186.883C79.99 186.883 80.7634 187.93 80.7634 189.734C80.7634 191.539 79.9978 192.586 78.6462 192.586ZM84.6059 183.367V185.516H83.2544V187.023H84.6059V191.734C84.6059 193.383 85.3872 194.039 87.3481 194.039C87.7231 194.039 88.0825 194.008 88.3637 193.953V192.469C88.1294 192.492 87.9809 192.508 87.7075 192.508C86.895 192.508 86.5356 192.125 86.5356 191.273V187.023H88.3637V185.516H86.5356V183.367H84.6059Z" fill="#FF2A2A"/>
<line x1="97.5" y1="71.5" x2="97.5" y2="6.5" stroke="#57AEFF" stroke-width="3" stroke-linecap="round"/>
<line x1="97.5" y1="170.5" x2="97.5" y2="105.5" stroke="#57AEFF" stroke-width="3" stroke-linecap="round"/>
<path d="M48.3434 219C50.7497 219 52.2184 217.781 52.2184 215.797C52.2184 214.328 51.1716 213.234 49.6559 213.094V212.953C50.7887 212.773 51.6637 211.727 51.6637 210.539C51.6637 208.805 50.3747 207.727 48.2341 207.727H43.5231V219H48.3434ZM45.5387 209.297H47.7419C48.9606 209.297 49.6716 209.883 49.6716 210.891C49.6716 211.922 48.9137 212.477 47.4841 212.477H45.5387V209.297ZM45.5387 217.43V213.906H47.8044C49.3434 213.906 50.1559 214.508 50.1559 215.656C50.1559 216.812 49.3669 217.43 47.8825 217.43H45.5387ZM60.9281 210.461H58.9906V215.438C58.9906 216.727 58.3031 217.508 57.0453 217.508C55.8891 217.508 55.35 216.867 55.35 215.539V210.461H53.4125V216.008C53.4125 218.008 54.5062 219.172 56.3734 219.172C57.6781 219.172 58.5141 218.617 58.9281 217.641H59.0609V219H60.9281V210.461ZM62.5831 219H64.5206V214.039C64.5206 212.836 65.3956 212.055 66.6534 212.055C66.9816 212.055 67.4972 212.109 67.6456 212.164V210.398C67.4659 210.352 67.1222 210.32 66.8409 210.32C65.7394 210.32 64.8175 210.945 64.5831 211.789H64.4503V210.461H62.5831V219ZM68.6287 219H70.5662V214.023C70.5662 212.742 71.2928 211.938 72.4491 211.938C73.6287 211.938 74.1756 212.602 74.1756 213.93V219H76.1131V213.477C76.1131 211.445 75.0741 210.297 73.1678 210.297C71.8944 210.297 71.035 210.875 70.6287 211.828H70.4959V210.461H68.6287V219ZM82.22 209.031C82.8606 209.031 83.3841 208.523 83.3841 207.883C83.3841 207.25 82.8606 206.734 82.22 206.734C81.5872 206.734 81.0638 207.25 81.0638 207.883C81.0638 208.523 81.5872 209.031 82.22 209.031ZM81.2591 219H83.1888V210.461H81.2591V219ZM85.4922 208.367V210.516H84.1406V212.023H85.4922V216.734C85.4922 218.383 86.2734 219.039 88.2344 219.039C88.6094 219.039 88.9688 219.008 89.25 218.953V217.469C89.0156 217.492 88.8672 217.508 88.5938 217.508C87.7812 217.508 87.4219 217.125 87.4219 216.273V212.023H89.25V210.516H87.4219V208.367H85.4922ZM33.6259 238.141C34.7431 238.141 35.6806 237.656 36.1572 236.828H36.29V238H38.1572V232.164C38.1572 230.359 36.9228 229.297 34.7275 229.297C32.6963 229.297 31.2822 230.25 31.1259 231.742H32.9541C33.1338 231.156 33.7431 230.836 34.6338 230.836C35.6806 230.836 36.2431 231.312 36.2431 232.164V232.898L34.04 233.031C31.9619 233.148 30.7978 234.047 30.7978 235.578C30.7978 237.141 31.9775 238.141 33.6259 238.141ZM34.1963 236.648C33.3369 236.648 32.7197 236.219 32.7197 235.484C32.7197 234.773 33.2275 234.375 34.3134 234.305L36.2431 234.172V234.867C36.2431 235.883 35.3681 236.648 34.1963 236.648ZM39.8513 238H41.7888V226.156H39.8513V238ZM43.6 238H45.5375V226.156H43.6V238ZM53.91 238.141C55.0975 238.141 56.0819 237.586 56.5662 236.648H56.6991V238H58.5741V226.156H56.6366V230.82H56.5037C56.0506 229.883 55.0819 229.32 53.91 229.32C51.7537 229.32 50.3944 231.023 50.3944 233.727C50.3944 236.438 51.7459 238.141 53.91 238.141ZM54.5116 230.938C55.8397 230.938 56.66 232.008 56.66 233.734C56.66 235.469 55.8475 236.531 54.5116 236.531C53.1834 236.531 52.3787 235.484 52.3787 233.734C52.3787 231.992 53.1912 230.938 54.5116 230.938ZM63.9869 238.172C66.5416 238.172 68.0963 236.5 68.0963 233.727C68.0963 230.969 66.5338 229.297 63.9869 229.297C61.4478 229.297 59.8775 230.977 59.8775 233.727C59.8775 236.5 61.4244 238.172 63.9869 238.172ZM63.9869 236.586C62.6353 236.586 61.8619 235.539 61.8619 233.734C61.8619 231.93 62.6353 230.883 63.9869 230.883C65.3306 230.883 66.1041 231.93 66.1041 233.734C66.1041 235.539 65.3384 236.586 63.9869 236.586ZM80.4309 229.461H78.5013L77.0872 235.875H76.9544L75.2981 229.461H73.4466L71.8059 235.875H71.6731L70.2513 229.461H68.2981L70.6106 238H72.6263L74.2825 231.812H74.4153L76.0794 238H78.1184L80.4309 229.461ZM81.4062 238H83.3438V233.023C83.3438 231.742 84.0703 230.938 85.2266 230.938C86.4062 230.938 86.9531 231.602 86.9531 232.93V238H88.8906V232.477C88.8906 230.445 87.8516 229.297 85.9453 229.297C84.6719 229.297 83.8125 229.875 83.4062 230.828H83.2734V229.461H81.4062V238Z" fill="#2C88DD"/>
<path d="M113.336 219V211.234H113.469L119 219H120.742V207.727H118.805V215.492H118.672L113.141 207.727H111.391V219H113.336ZM128.178 216.664C127.897 217.305 127.233 217.664 126.272 217.664C124.999 217.664 124.178 216.758 124.132 215.312V215.211H130.1V214.594C130.1 211.914 128.639 210.297 126.202 210.297C123.725 210.297 122.186 212.023 122.186 214.766C122.186 217.5 123.702 219.172 126.217 219.172C128.233 219.172 129.663 218.203 130.014 216.664H128.178ZM126.194 211.805C127.358 211.805 128.124 212.625 128.163 213.922H124.139C124.225 212.641 125.038 211.805 126.194 211.805ZM134.302 216.047L136.052 219.016H138.24L135.451 214.695L138.208 210.477H136.076L134.388 213.438H134.255L132.56 210.477H130.31L133.099 214.781L130.333 219.016H132.427L134.169 216.047H134.302ZM139.848 208.367V210.516H138.496V212.023H139.848V216.734C139.848 218.383 140.629 219.039 142.59 219.039C142.965 219.039 143.324 219.008 143.606 218.953V217.469C143.371 217.492 143.223 217.508 142.949 217.508C142.137 217.508 141.778 217.125 141.778 216.273V212.023H143.606V210.516H141.778V208.367H139.848ZM158.322 214.5V213.094H153.642V214.633H156.353L156.345 214.867C156.314 216.461 155.142 217.531 153.423 217.531C151.416 217.531 150.158 215.938 150.158 213.344C150.158 210.789 151.392 209.195 153.361 209.195C154.806 209.195 155.814 209.914 156.22 211.219H158.228C157.869 208.922 155.963 207.445 153.361 207.445C150.15 207.445 148.095 209.75 148.095 213.359C148.095 217.008 150.127 219.281 153.392 219.281C156.4 219.281 158.322 217.414 158.322 214.5ZM165.313 216.664C165.032 217.305 164.368 217.664 163.407 217.664C162.133 217.664 161.313 216.758 161.266 215.312V215.211H167.235V214.594C167.235 211.914 165.774 210.297 163.336 210.297C160.86 210.297 159.321 212.023 159.321 214.766C159.321 217.5 160.836 219.172 163.352 219.172C165.368 219.172 166.797 218.203 167.149 216.664H165.313ZM163.328 211.805C164.493 211.805 165.258 212.625 165.297 213.922H161.274C161.36 212.641 162.172 211.805 163.328 211.805ZM168.46 219H170.397V214.023C170.397 212.742 171.124 211.938 172.28 211.938C173.46 211.938 174.007 212.602 174.007 213.93V219H175.944V213.477C175.944 211.445 174.905 210.297 172.999 210.297C171.726 210.297 170.866 210.875 170.46 211.828H170.327V210.461H168.46V219ZM192.911 219V207.727H190.551L187.161 216.094H187.02L183.629 207.727H181.27V219H183.145V211.008H183.254L186.372 218.648H187.809L190.926 211.008H191.036V219H192.911ZM198.456 219.172C201.011 219.172 202.566 217.5 202.566 214.727C202.566 211.969 201.003 210.297 198.456 210.297C195.917 210.297 194.347 211.977 194.347 214.727C194.347 217.5 195.894 219.172 198.456 219.172ZM198.456 217.586C197.105 217.586 196.331 216.539 196.331 214.734C196.331 212.93 197.105 211.883 198.456 211.883C199.8 211.883 200.573 212.93 200.573 214.734C200.573 216.539 199.808 217.586 198.456 217.586ZM206.893 219.141C208.08 219.141 209.064 218.586 209.549 217.648H209.682V219H211.557V207.156H209.619V211.82H209.486C209.033 210.883 208.064 210.32 206.893 210.32C204.736 210.32 203.377 212.023 203.377 214.727C203.377 217.438 204.728 219.141 206.893 219.141ZM207.494 211.938C208.822 211.938 209.643 213.008 209.643 214.734C209.643 216.469 208.83 217.531 207.494 217.531C206.166 217.531 205.361 216.484 205.361 214.734C205.361 212.992 206.174 211.938 207.494 211.938ZM220.719 210.461H218.782V215.438C218.782 216.727 218.094 217.508 216.837 217.508C215.68 217.508 215.141 216.867 215.141 215.539V210.461H213.204V216.008C213.204 218.008 214.298 219.172 216.165 219.172C217.469 219.172 218.305 218.617 218.719 217.641H218.852V219H220.719V210.461ZM222.452 219H224.39V207.156H222.452V219ZM231.693 216.664C231.412 217.305 230.748 217.664 229.787 217.664C228.514 217.664 227.693 216.758 227.647 215.312V215.211H233.615V214.594C233.615 211.914 232.154 210.297 229.717 210.297C227.24 210.297 225.701 212.023 225.701 214.766C225.701 217.5 227.217 219.172 229.732 219.172C231.748 219.172 233.178 218.203 233.529 216.664H231.693ZM229.709 211.805C230.873 211.805 231.639 212.625 231.678 213.922H227.654C227.74 212.641 228.553 211.805 229.709 211.805ZM238.996 214.281C238.996 217.125 239.738 219.484 241.277 221.414H243.027C241.886 219.961 240.996 216.977 240.996 214.273C240.996 211.586 241.894 208.594 243.027 207.156H241.277C239.746 209.07 238.996 211.422 238.996 214.281ZM246.479 214.758H248.713L250.924 219H253.229L250.768 214.453C252.112 213.969 252.893 212.727 252.893 211.234C252.893 209.078 251.408 207.727 249.041 207.727H244.463V219H246.479V214.758ZM246.479 209.359H248.76C250.041 209.359 250.822 210.086 250.822 211.273C250.822 212.484 250.088 213.18 248.807 213.18H246.479V209.359ZM261.892 219H264.056L260.048 207.727H257.782L253.782 219H255.821L256.79 216.086H260.938L261.892 219ZM258.806 209.844H258.938L260.47 214.531H257.259L258.806 209.844ZM265.273 207.727V219H269.5C272.875 219 274.804 216.93 274.804 213.312C274.804 209.773 272.851 207.727 269.5 207.727H265.273ZM267.289 209.422H269.234C271.445 209.422 272.75 210.859 272.75 213.344C272.75 215.883 271.476 217.305 269.234 217.305H267.289V209.422ZM279.795 214.289C279.795 211.438 279.053 209.086 277.514 207.156H275.764C276.905 208.602 277.795 211.594 277.795 214.297C277.795 216.984 276.897 219.977 275.764 221.414H277.514C279.045 219.5 279.795 217.141 279.795 214.289ZM112.633 244.156C113.375 244.156 113.883 243.633 113.883 242.938C113.883 242.25 113.375 241.727 112.633 241.727C111.898 241.727 111.383 242.25 111.383 242.938C111.383 243.633 111.898 244.156 112.633 244.156ZM117.178 244.156C117.921 244.156 118.428 243.633 118.428 242.938C118.428 242.25 117.921 241.727 117.178 241.727C116.444 241.727 115.928 242.25 115.928 242.938C115.928 243.633 116.444 244.156 117.178 244.156ZM121.724 244.156C122.466 244.156 122.974 243.633 122.974 242.938C122.974 242.25 122.466 241.727 121.724 241.727C120.99 241.727 120.474 242.25 120.474 242.938C120.474 243.633 120.99 244.156 121.724 244.156Z" fill="black"/>
<line x1="97.5" y1="270.5" x2="97.5" y2="205.5" stroke="#57AEFF" stroke-width="3" stroke-linecap="round"/>
<rect x="2" y="178" width="307" height="21" rx="2" stroke="#FF2B2B" stroke-width="2"/>
</svg>
