<svg width="89" height="72" viewBox="0 0 89 72" fill="none" xmlns="http://www.w3.org/2000/svg">
<g clip-path="url(#clip0_49_56)">
<path d="M27.9285 71.7027C61.0876 71.7027 79.221 44.2319 79.221 20.4102C79.221 19.6299 79.2051 18.8532 79.1701 18.0799C82.69 15.5353 85.7494 12.3598 88.1625 8.74493C84.9324 10.1807 81.4564 11.1472 77.81 11.583C81.5319 9.3512 84.3893 5.82072 85.7373 1.612C82.2543 3.67688 78.397 5.17765 74.29 5.9879C71.0003 2.48388 66.3169 0.292236 61.131 0.292236C51.1756 0.292236 43.1026 8.3656 43.1026 18.3172C43.1026 19.7318 43.2607 21.1078 43.57 22.4277C28.5871 21.6738 15.3014 14.5003 6.4098 3.59252C4.86159 6.25663 3.96887 9.35129 3.96887 12.6533C3.96887 18.9078 7.15151 24.4292 11.9912 27.6593C9.03355 27.5679 6.25515 26.756 3.82675 25.4046C3.8241 25.4802 3.82409 25.554 3.82409 25.6348C3.82409 34.3654 10.0381 41.6547 18.2869 43.3065C16.7721 43.7194 15.1783 43.9409 13.5333 43.9409C12.3735 43.9409 11.2435 43.8267 10.1451 43.6158C12.4402 50.7786 19.0954 55.991 26.9856 56.1367C20.8155 60.9729 13.0429 63.8533 4.59543 63.8533C3.1421 63.8533 1.70636 63.7706 0.295288 63.6037C8.2737 68.7176 17.7473 71.7015 27.9295 71.7015" fill="#959595"/>
</g>
<defs>
<clipPath id="clip0_49_56">
<rect width="88.4557" height="72" fill="white"/>
</clipPath>
</defs>
</svg>
