<svg width="72" height="72" viewBox="0 0 72 72" fill="none" xmlns="http://www.w3.org/2000/svg">
<g clip-path="url(#clip0_49_26)">
<path fill-rule="evenodd" clip-rule="evenodd" d="M64 72H8C3.58172 72 0 68.4183 0 64V8C0 3.58172 3.58172 0 8 0H64C68.4183 0 72 3.58172 72 8V64C72 68.4183 68.4183 72 64 72ZM50.1375 60H60V39.7396C60 31.1672 55.1406 27.0224 48.3531 27.0224C41.5625 27.0224 38.7047 32.3104 38.7047 32.3104V28H29.2V60H38.7047V43.202C38.7047 38.701 40.7766 36.0226 44.7422 36.0226C48.3875 36.0226 50.1375 38.5964 50.1375 43.202V60ZM11 17.9049C11 21.1658 13.6234 23.8099 16.8609 23.8099C20.0984 23.8099 22.7203 21.1658 22.7203 17.9049C22.7203 14.644 20.0984 12 16.8609 12C13.6234 12 11 14.644 11 17.9049ZM21.8641 60H11.9531V28H21.8641V60Z" fill="#959595"/>
</g>
<defs>
<clipPath id="clip0_49_26">
<rect width="72" height="72" fill="white"/>
</clipPath>
</defs>
</svg>
